<svg width="136" height="91" viewBox="0 0 136 91" fill="none" xmlns="http://www.w3.org/2000/svg"><path d="M82 50c0 22.644-18.356 41-41 41S0 72.644 0 50 18.356 9 41 9s41 18.356 41 41zM6.5 50c0 19.054 15.446 34.5 34.5 34.5 19.054 0 34.5-15.446 34.5-34.5 0-19.054-15.446-34.5-34.5-34.5C21.946 15.5 6.5 30.946 6.5 50z" fill="url(#a)"/><path d="M136 17c0 9.389-7.611 17-17 17s-17-7.611-17-17 7.611-17 17-17 17 7.611 17 17zm-30.628 0c0 7.527 6.101 13.628 13.628 13.628S132.628 24.527 132.628 17 126.527 3.372 119 3.372 105.372 9.473 105.372 17z" fill="url(#b)"/><defs><linearGradient id="a" x1="41" y1="9" x2="41" y2="91" gradientUnits="userSpaceOnUse"><stop stop-color="#FDBABA"/><stop offset="1" stop-color="#FCDDA9"/></linearGradient><linearGradient id="b" x1="119" x2="119" y2="34" gradientUnits="userSpaceOnUse"><stop stop-color="#74E6CF"/><stop offset="1" stop-color="#C0E594"/></linearGradient></defs></svg>