<svg width="1443" height="147" viewBox="0 0 1443 147" fill="none" xmlns="http://www.w3.org/2000/svg"><path d="M45 102l67.65-57 67.65 57 67.65-57 67.65 57 67.65-57 67.65 57 67.65-57 67.65 57 67.65-57 67.65 57 67.65-57 67.65 57 67.65-57 67.65 57 67.65-57 67.65 57 67.65-57 67.65 57 67.65-57 67.65 57" stroke="#F0F8F6" stroke-width="89" stroke-linecap="round" stroke-linejoin="round"/><path d="M86 46c0 22.644-18.356 41-41 41S4 68.644 4 46 22.356 5 45 5s41 18.356 41 41zm-75.5 0c0 19.054 15.446 34.5 34.5 34.5 19.054 0 34.5-15.446 34.5-34.5 0-19.054-15.446-34.5-34.5-34.5-19.054 0-34.5 15.446-34.5 34.5z" fill="url(#a)"/><defs><linearGradient id="a" x1="19.53" y1="13.076" x2="86" y2="96.318" gradientUnits="userSpaceOnUse"><stop stop-color="#74E6CF"/><stop offset="1" stop-color="#C0E594"/></linearGradient></defs></svg>