<svg width="125" height="511" viewBox="0 0 125 511" fill="none" xmlns="http://www.w3.org/2000/svg"><path d="M104 33c0 18.225-14.775 33-33 33S38 51.225 38 33 52.775 0 71 0s33 14.775 33 33zm-59.455 0c0 14.61 11.844 26.455 26.455 26.455 14.61 0 26.455-11.844 26.455-26.455C97.455 18.39 85.611 6.545 71 6.545 56.39 6.545 44.545 18.389 44.545 33z" fill="url(#a)"/><path opacity=".5" d="M31 83v13.75h87.5V83H31zm0 53.179v14.125h87.5v-12.25H66.125l52.375-14.125v-17.25H31v12.375h63.375L31 136.179zm66.5 22.219c-25 0-28.375 26.875-46.375 26.875-6.25 0-8.5-2.75-8.5-7.125s2.25-7.125 8.5-7.125h6.25v-13H52c-14 0-22 7-22 20.5s8 20.5 22 20.5c25 0 28.375-26.875 46.375-26.875 6.25 0 8.625 2.5 8.625 6.875s-2.375 6.875-8.625 6.875H94.75v13h2.75c14 0 22-6.875 22-20.25s-8-20.25-22-20.25zm8.5 44.503v14.375H31v13.75h75v14.375h12.5v-42.5H106zm12.5 74.295v-20.125l-87.5-14v12.625l15.875 2.375v16.875L31 277.321v13.875l87.5-14zm-15.5-10.75l-44.25 6.625v-13.25l44.25 6.625zm-35.75 51.657v6.25H51.125c-6.25 0-8.5-2.75-8.5-7.125s2.25-7.125 8.5-7.125h47.25c6.25 0 8.625 2.75 8.625 7.125s-2.375 7.125-8.625 7.125H89v13h8.5c14 0 22-7 22-20.5s-8-20.5-22-20.5H52c-14 0-22 7-22 20.5s8 20.5 22 20.5h27.75v-19.25h-12.5zM31 388.934c3.25-1.375 6.375-1.5 10.625-1.5h13.5c9.125 0 15.75-2.25 18.625-9.125 2.875 6.125 8.75 9 17.75 9h6.875c13.5 0 20.125-6.125 20.125-20.375v-20.75H31v13.75h35.625v4.75c0 6.25-3 9-11.125 9H41.75c-7.125 0-8.5.5-10.75 1.25v14zm75-22.375c0 4.875-2.75 7-9 7h-8.625c-7 0-9.25-3.125-9.25-8.25v-5.375H106v6.625zm12.5 60.418v-20.125l-87.5-14v12.625l15.875 2.375v16.875L31 427.102v13.875l87.5-14zm-15.5-10.75l-44.25 6.625v-13.25l44.25 6.625zm15.5 50.153v-19.125H31v12h61.875L31 469.505v13l62.75 9.5H31v13h87.5V485.88l-62.125-9.375L118.5 466.38z" fill="#fff"/><defs><linearGradient id="a" x1="50.5" y1="6.5" x2="104" y2="73.5" gradientUnits="userSpaceOnUse"><stop stop-color="#74E6CF"/><stop offset="1" stop-color="#C0E594"/></linearGradient></defs></svg>