<svg width="30" height="30" viewBox="0 0 30 30" fill="none" xmlns="http://www.w3.org/2000/svg"><g clip-path="url(#a)" fill="#01A3A4"><path d="M25.607 4.394A14.902 14.902 0 0 0 15 0C10.993 0 7.227 1.56 4.394 4.394A14.902 14.902 0 0 0 0 15c0 4.007 1.56 7.774 4.394 10.607A14.902 14.902 0 0 0 15 30c4.007 0 7.774-1.56 10.607-4.393A14.902 14.902 0 0 0 30 15a14.9 14.9 0 0 0-4.393-10.606zm-.663 20.55A13.97 13.97 0 0 1 15 29.062a13.97 13.97 0 0 1-9.943-4.118A13.97 13.97 0 0 1 .937 15a13.97 13.97 0 0 1 4.12-9.943A13.97 13.97 0 0 1 15 .937a13.97 13.97 0 0 1 9.944 4.12A13.97 13.97 0 0 1 29.062 15a13.97 13.97 0 0 1-4.118 9.944z"/><path d="M18.94 7.48h-7.85c-1.99 0-3.61 1.62-3.61 3.61v7.85c0 1.99 1.62 3.61 3.61 3.61h7.85c1.99 0 3.61-1.62 3.61-3.61v-7.85c0-1.99-1.62-3.61-3.61-3.61zm2.659 11.46a2.662 2.662 0 0 1-2.66 2.659h-7.85a2.662 2.662 0 0 1-2.659-2.66v-7.85a2.662 2.662 0 0 1 2.66-2.659h7.85a2.662 2.662 0 0 1 2.659 2.66v7.85z"/><path d="M19.226 10.234a.58.58 0 1 0 .001 1.159.58.58 0 0 0-.001-1.16zm-4.212 1.086a3.698 3.698 0 0 0-3.693 3.694 3.698 3.698 0 0 0 3.693 3.694 3.698 3.698 0 0 0 3.694-3.694 3.698 3.698 0 0 0-3.694-3.693zm0 6.438a2.746 2.746 0 0 1-2.743-2.744 2.746 2.746 0 0 1 2.743-2.742 2.746 2.746 0 0 1 2.743 2.742 2.746 2.746 0 0 1-2.743 2.744z"/></g><defs><clipPath id="a"><path fill="#fff" d="M0 0h30v30H0z"/></clipPath></defs></svg>