<svg width="297" height="103" viewBox="0 0 297 103" fill="none" xmlns="http://www.w3.org/2000/svg"><path d="M62 79.318c0 11.874-9.402 21.5-21 21.5s-21-9.626-21-21.5 9.402-21.5 21-21.5 21 9.626 21 21.5zm-38.67 0c0 9.992 7.91 18.092 17.67 18.092 9.76 0 17.67-8.1 17.67-18.092 0-9.992-7.91-18.091-17.67-18.091-9.76 0-17.67 8.1-17.67 18.091z" fill="url(#a)"/><path d="M285.233 19.307c7.838 9.962-.041 18.295-2.047 27.007-2.005 8.712-.778 22.236 6.9 18.682 7.679-3.554-2.307-17.79-13.029-8.678-10.723 9.112 4.968 39.537-31.836 45.387M211.5 11.5c7 6.5 4.5 18 2 23.5s-10.798 9.03-14.673 4c-3.876-5.03 4.5-8.5 9.5 7s-19.743 15.456 2.486 32.832M133.5 20.5C114 52.5 165.179 39.663 146 68M2.5 24.5C2.066 41.845 33 54 37.5 41c1.07-3.093-4.374-7.349-8.5-4-6.12 4.966-3.82 9.01 1 13 14.5 12 31-16.5 44.084 2.636" stroke="#D69914" stroke-dasharray="5 5"/><defs><linearGradient id="a" x1="29.081" y1="62.467" x2="47.364" y2="100.487" gradientUnits="userSpaceOnUse"><stop stop-color="#FCDDA9"/><stop offset="1" stop-color="#FDBABA"/></linearGradient></defs></svg>