<svg width="119" height="25" viewBox="0 0 119 25" fill="none" xmlns="http://www.w3.org/2000/svg"><path d="M98.408 12.01l.506-4.963h5.1v1.169h-4.027l-.3 2.714c.487-.287 1.041-.431 1.661-.431.907 0 1.627.3 2.16.902.533.597.8 1.406.8 2.427 0 1.026-.278 1.834-.834 2.427-.552.588-1.324.882-2.318.882-.879 0-1.597-.244-2.153-.732-.556-.487-.873-1.162-.95-2.023h1.196c.078.57.28 1 .608 1.292.329.287.761.43 1.299.43.588 0 1.048-.2 1.381-.601.337-.401.506-.955.506-1.661 0-.666-.182-1.199-.547-1.6-.36-.405-.841-.608-1.442-.608-.552 0-.985.12-1.3.362l-.334.274-1.012-.26zm7.663 5.845h-1.087l4.157-10.808h1.08l-4.15 10.808zm5.968-5.845l.506-4.963h5.1v1.169h-4.027l-.301 2.714a3.216 3.216 0 0 1 1.662-.431c.906 0 1.626.3 2.16.902.533.597.799 1.406.799 2.427 0 1.026-.278 1.834-.834 2.427-.551.588-1.323.882-2.317.882-.879 0-1.597-.244-2.153-.732-.556-.487-.873-1.162-.95-2.023h1.196c.077.57.28 1 .608 1.292.328.287.761.43 1.299.43.588 0 1.048-.2 1.381-.601.337-.401.506-.955.506-1.661 0-.666-.182-1.199-.547-1.6-.36-.405-.841-.608-1.442-.608-.552 0-.985.12-1.299.362l-.335.274-1.012-.26z" fill="#E5E5E5"/><g clip-path="url(#a)"><path d="M91.622 9.883l-5.182-.48-2.059-4.781a.415.415 0 0 0-.763 0l-2.058 4.78-5.183.48a.415.415 0 0 0-.235.726l3.91 3.435-1.144 5.078a.415.415 0 0 0 .617.448L84 16.912l4.475 2.657a.415.415 0 0 0 .617-.448l-1.144-5.078 3.91-3.435a.415.415 0 0 0-.236-.725z" fill="#FFDC64"/><path d="M84.381 4.622a.415.415 0 0 0-.763 0l-2.058 4.78-5.183.48a.415.415 0 0 0-.235.726l3.91 3.435-1.144 5.078a.415.415 0 0 0 .617.448l.999-.593c.138-5.69 2.782-9.698 4.875-11.99l-1.018-2.364z" fill="#FFC850"/></g><g clip-path="url(#b)"><path d="M72.622 9.883l-5.182-.48-2.059-4.781a.415.415 0 0 0-.763 0l-2.058 4.78-5.183.48a.415.415 0 0 0-.235.726l3.91 3.435-1.144 5.078a.415.415 0 0 0 .617.448L65 16.912l4.475 2.657a.415.415 0 0 0 .617-.448l-1.144-5.078 3.91-3.435a.415.415 0 0 0-.236-.725z" fill="#FFDC64"/><path d="M65.381 4.622a.415.415 0 0 0-.763 0l-2.058 4.78-5.183.48a.415.415 0 0 0-.235.726l3.91 3.435-1.144 5.078a.415.415 0 0 0 .617.448l.999-.593c.138-5.69 2.782-9.698 4.875-11.99l-1.018-2.364z" fill="#FFC850"/></g><g clip-path="url(#c)"><path d="M53.622 9.883l-5.182-.48-2.059-4.781a.415.415 0 0 0-.763 0l-2.058 4.78-5.183.48a.415.415 0 0 0-.235.726l3.91 3.435-1.144 5.078a.415.415 0 0 0 .617.448L46 16.912l4.475 2.657a.415.415 0 0 0 .617-.448l-1.144-5.078 3.91-3.435a.415.415 0 0 0-.236-.725z" fill="#FFDC64"/><path d="M46.381 4.622a.415.415 0 0 0-.763 0l-2.058 4.78-5.183.48a.415.415 0 0 0-.235.726l3.91 3.435-1.144 5.078a.415.415 0 0 0 .617.448l.999-.593c.138-5.69 2.782-9.698 4.875-11.99l-1.018-2.364z" fill="#FFC850"/></g><g clip-path="url(#d)"><path d="M34.622 9.883l-5.182-.48-2.059-4.781a.415.415 0 0 0-.762 0l-2.06 4.78-5.182.48a.415.415 0 0 0-.235.726l3.91 3.435-1.144 5.078a.415.415 0 0 0 .617.448L27 16.912l4.475 2.657a.415.415 0 0 0 .617-.448l-1.144-5.078 3.91-3.435a.415.415 0 0 0-.236-.725z" fill="#FFDC64"/><path d="M27.381 4.622a.415.415 0 0 0-.762 0l-2.06 4.78-5.182.48a.415.415 0 0 0-.235.726l3.91 3.435-1.144 5.078a.415.415 0 0 0 .617.448l.999-.593c.138-5.69 2.782-9.698 4.875-11.99l-1.018-2.364z" fill="#FFC850"/></g><g clip-path="url(#e)"><path d="M15.622 9.883l-5.182-.48-2.059-4.781a.415.415 0 0 0-.763 0L5.56 9.402l-5.183.48a.415.415 0 0 0-.235.726l3.91 3.435-1.144 5.078a.415.415 0 0 0 .617.448L8 16.912l4.475 2.657a.415.415 0 0 0 .617-.448l-1.144-5.078 3.91-3.435a.415.415 0 0 0-.236-.725z" fill="#FFDC64"/><path d="M8.381 4.622a.415.415 0 0 0-.763 0L5.56 9.402l-5.183.48a.415.415 0 0 0-.235.726l3.91 3.435-1.144 5.078a.415.415 0 0 0 .617.448l.999-.593c.138-5.69 2.782-9.698 4.875-11.99L8.381 4.622z" fill="#FFC850"/></g><defs><clipPath id="a"><path fill="#fff" transform="translate(76 4)" d="M0 0h16v16H0z"/></clipPath><clipPath id="b"><path fill="#fff" transform="translate(57 4)" d="M0 0h16v16H0z"/></clipPath><clipPath id="c"><path fill="#fff" transform="translate(38 4)" d="M0 0h16v16H0z"/></clipPath><clipPath id="d"><path fill="#fff" transform="translate(19 4)" d="M0 0h16v16H0z"/></clipPath><clipPath id="e"><path fill="#fff" transform="translate(0 4)" d="M0 0h16v16H0z"/></clipPath></defs></svg>