<svg aria-hidden="true" style="position: absolute; width: 0; height: 0; overflow: hidden;" version="1.1" xmlns="http://www.w3.org/2000/svg" xmlns:xlink="http://www.w3.org/1999/xlink">
<defs>
<symbol id="icon-qq" viewBox="0 0 33 32">
<path fill="#f0f8f6" style="fill: var(--color1, #f0f8f6)" d="M3.631 15.534l4.498-15.534h-6.979l-7.444 17.243v14.757h16.439v-16.466h-6.514zM26.273 15.534l4.498-15.534h-6.979l-7.444 17.243v14.757h16.439v-16.466h-6.514z"></path>
</symbol>
<symbol id="icon-Arrow_left" viewBox="0 0 32 32">
<path fill="#f0f8f6" style="fill: var(--color1, #f0f8f6)" d="M16 0c8.837 0 16 7.163 16 16s-7.163 16-16 16c-8.837 0-16-7.163-16-16s7.163-16 16-16z"></path>
<path fill="#000" style="fill: var(--color2, #000)" d="M16 4.268c-6.48 0-11.733 5.253-11.733 11.733s5.253 11.733 11.733 11.733c6.48 0 11.733-5.253 11.733-11.733s-5.253-11.733-11.733-11.733z"></path>
<path fill="#fff" style="fill: var(--color3, #fff)" d="M14.467 11.758l1.086 1.115c0.074 0.076 0.074 0.197-0 0.273l-1.84 1.877h7.958c0.108 0 0.196 0.088 0.196 0.196v1.564c0 0.108-0.088 0.196-0.196 0.196h-7.958l1.84 1.877c0.074 0.076 0.074 0.197 0 0.273l-1.086 1.115c-0.037 0.038-0.087 0.059-0.14 0.059s-0.103-0.022-0.14-0.059l-3.999-4.107c-0.037-0.038-0.056-0.087-0.056-0.136s0.019-0.098 0.056-0.137l3.999-4.107c0.037-0.038 0.087-0.059 0.14-0.059s0.103 0.021 0.14 0.059z"></path>
</symbol>
<symbol id="icon-Arrow_right" viewBox="0 0 32 32">
<path fill="#f0f8f6" style="fill: var(--color1, #f0f8f6)" d="M16 0c-8.837 0-16 7.163-16 16s7.163 16 16 16c8.837 0 16-7.163 16-16s-7.163-16-16-16z"></path>
<path fill="#000" style="fill: var(--color2, #000)" d="M16 4.268c6.48 0 11.733 5.253 11.733 11.733s-5.253 11.733-11.733 11.733c-6.48 0-11.733-5.253-11.733-11.733s5.253-11.733 11.733-11.733z"></path>
<path fill="#fff" style="fill: var(--color3, #fff)" d="M17.533 11.758l-1.086 1.115c-0.074 0.076-0.074 0.197 0 0.273l1.84 1.877h-7.958c-0.108 0-0.196 0.088-0.196 0.196v1.564c0 0.108 0.088 0.196 0.196 0.196h7.958l-1.84 1.877c-0.074 0.076-0.074 0.197-0 0.273l1.086 1.115c0.037 0.038 0.087 0.059 0.14 0.059s0.103-0.022 0.14-0.059l3.999-4.107c0.037-0.038 0.055-0.087 0.055-0.136s-0.019-0.098-0.055-0.137l-3.999-4.107c-0.037-0.038-0.087-0.059-0.14-0.059s-0.103 0.021-0.14 0.059z"></path>
</symbol>
<symbol id="icon-baner-mob-c" viewBox="0 0 32 32">
<path d="M32 16c0 8.837-7.163 16-16 16s-16-7.163-16-16c0-8.837 7.163-16 16-16s16 7.163 16 16zM10.202 16c0 3.202 2.596 5.798 5.798 5.798s5.798-2.596 5.798-5.798c0-3.202-2.596-5.798-5.798-5.798s-5.798 2.596-5.798 5.798z"></path>
</symbol>
<symbol id="icon-baner-mob-r" viewBox="0 0 31 32">
<path d="M30.545 16.231c0 8.636-6.838 15.636-15.273 15.636s-15.273-7.001-15.273-15.636c0-8.636 6.838-15.636 15.273-15.636s15.273 7.001 15.273 15.636zM2.421 16.231c0 7.267 5.754 13.157 12.851 13.157s12.851-5.891 12.851-13.157c0-7.267-5.754-13.157-12.851-13.157s-12.851 5.891-12.851 13.157z"></path>
</symbol>
<symbol id="icon-box-l" viewBox="0 0 32 32">
<path d="M32 16c0 8.837-7.163 16-16 16s-16-7.163-16-16c0-8.837 7.163-16 16-16s16 7.163 16 16zM10.202 16c0 3.202 2.596 5.798 5.798 5.798s5.798-2.596 5.798-5.798c0-3.202-2.596-5.798-5.798-5.798s-5.798 2.596-5.798 5.798z"></path>
</symbol>
<symbol id="icon-box-r" viewBox="0 0 32 32">
<path d="M32 16c0-8.837-7.163-16-16-16s-16 7.163-16 16c0 8.837 7.163 16 16 16s16-7.163 16-16zM3.173 16c0-7.084 5.743-12.827 12.827-12.827s12.827 5.743 12.827 12.827c0 7.084-5.743 12.827-12.827 12.827s-12.827-5.743-12.827-12.827z"></path>
</symbol>
<symbol id="icon-cliens-bottom" viewBox="0 0 48 32">
<path d="M28.835 17.582c0 7.963-6.455 14.418-14.418 14.418s-14.418-6.455-14.418-14.418c0-7.963 6.455-14.418 14.418-14.418s14.418 6.455 14.418 14.418zM2.286 17.582c0 6.7 5.432 12.132 12.132 12.132s12.132-5.432 12.132-12.132c0-6.7-5.432-12.132-12.132-12.132s-12.132 5.432-12.132 12.132z"></path>
<path d="M47.824 5.978c0 3.302-2.676 5.978-5.978 5.978s-5.978-2.676-5.978-5.978c0-3.302 2.676-5.978 5.978-5.978s5.978 2.676 5.978 5.978zM37.054 5.978c0 2.647 2.145 4.792 4.792 4.792s4.792-2.146 4.792-4.792c0-2.647-2.145-4.792-4.792-4.792s-4.792 2.146-4.792 4.792z"></path>
</symbol>
<symbol id="icon-cliens-wave" viewBox="0 0 314 32">
<path fill="none" stroke="#f0f8f6" style="stroke: var(--color1, #f0f8f6)" stroke-linejoin="round" stroke-linecap="round" stroke-miterlimit="4" stroke-width="19.3741" d="M9.796 22.204l14.727-12.408 14.727 12.408 14.727-12.408 14.727 12.408 14.727-12.408 14.727 12.408 14.727-12.408 14.727 12.408 14.727-12.408 14.727 12.408 14.727-12.408 14.727 12.408 14.727-12.408 14.727 12.408 14.727-12.408 14.727 12.408 14.727-12.408 14.727 12.408 14.727-12.408 14.727 12.408"></path>
<path d="M18.721 10.014c0 4.929-3.996 8.925-8.925 8.925s-8.925-3.996-8.925-8.925c0-4.929 3.996-8.925 8.925-8.925s8.925 3.996 8.925 8.925zM2.286 10.014c0 4.148 3.362 7.51 7.51 7.51s7.51-3.362 7.51-7.51c0-4.148-3.362-7.51-7.51-7.51s-7.51 3.362-7.51 7.51z"></path>
</symbol>
<symbol id="icon-facebook" viewBox="0 0 32 32" width="32" height="32">
<path fill="#01a3a4" style="fill: var(--color4, #01a3a4)" d="M13.931 24.25h3.218c0.276 0 0.5-0.224 0.5-0.5v-7.244h1.672c0.256 0 0.471-0.194 0.497-0.449l0.282-2.736c0.015-0.141-0.031-0.281-0.126-0.386s-0.23-0.165-0.371-0.165h-1.954v-1.108c0-0.229 0.072-0.246 0.183-0.246h1.73c0.276 0 0.5-0.224 0.5-0.5v-2.656c0-0.275-0.223-0.499-0.498-0.5l-2.386-0.010c-1.672 0-2.564 0.736-3.018 1.353-0.634 0.862-0.729 1.871-0.729 2.396v1.271h-1.031c-0.276 0-0.5 0.224-0.5 0.5v2.736c0 0.276 0.224 0.5 0.5 0.5h1.031v7.244c0 0.276 0.224 0.5 0.5 0.5zM12.9 15.506v-1.736h1.031c0.276 0 0.5-0.224 0.5-0.5v-1.771c0-0.324 0.052-1.149 0.534-1.804 0.462-0.627 1.206-0.945 2.211-0.945l1.886 0.008v1.658h-1.23c-0.589 0-1.183 0.385-1.183 1.246v1.608c0 0.276 0.224 0.5 0.5 0.5h1.9l-0.179 1.736h-1.721c-0.276 0-0.5 0.224-0.5 0.5v7.244h-2.218v-7.244c0-0.276-0.224-0.5-0.5-0.5h-1.030z"></path>
<path fill="#01a3a4" style="fill: var(--color4, #01a3a4)" d="M27.314 4.686c-3.022-3.022-7.040-4.686-11.314-4.686s-8.291 1.664-11.313 4.686-4.686 7.040-4.686 11.314c0 4.274 1.664 8.292 4.686 11.314s7.040 4.686 11.313 4.686c4.274 0 8.292-1.664 11.314-4.686s4.686-7.040 4.686-11.314c0-4.274-1.664-8.291-4.686-11.313zM26.607 26.607c-2.833 2.833-6.6 4.393-10.607 4.393s-7.773-1.56-10.606-4.393c-2.833-2.833-4.394-6.6-4.394-10.607s1.56-7.773 4.394-10.606c2.833-2.833 6.6-4.394 10.606-4.394s7.774 1.56 10.607 4.394c2.833 2.833 4.393 6.6 4.393 10.606s-1.56 7.774-4.393 10.607z"></path>
</symbol>
<symbol id="icon-foots" viewBox="0 0 38 32">
<path d="M3.538 11.385c-0.769 3.385 5.473 16.334 12.154 13.385 2.462-1.231 2.154-4.154 2.154-4.154-0.308-2.462-2.133-2.343-2.615-5.077s1.685-7.22-3.538-9.231c-3.343-1.287-7.091 0.804-8.154 5.077z"></path>
<path d="M34.32 18.149c0.769 3.385-5.473 16.334-12.154 13.385-2.462-1.231-2.154-4.154-2.154-4.154 0.308-2.462 2.133-2.343 2.615-5.077s-1.685-7.22 3.538-9.231c3.343-1.287 7.091 0.804 8.154 5.077z"></path>
<path d="M14.77 2.819c-0.093 1.403-1.089 2.478-2.224 2.403s-1.979-1.274-1.886-2.676c0.093-1.403 1.089-2.478 2.224-2.403s1.979 1.274 1.886 2.676z"></path>
<path d="M23.088 9.582c0.093 1.403 1.089 2.478 2.224 2.403s1.979-1.274 1.886-2.676c-0.093-1.403-1.089-2.478-2.224-2.403s-1.979 1.274-1.886 2.676z"></path>
<path d="M9.671 3.027c0.113 1.025-0.467 1.93-1.297 2.022s-1.594-0.665-1.707-1.69c-0.113-1.025 0.467-1.931 1.297-2.022s1.594 0.665 1.707 1.69z"></path>
<path d="M28.188 9.791c-0.113 1.025 0.467 1.931 1.297 2.022s1.594-0.665 1.707-1.69c0.113-1.025-0.467-1.931-1.297-2.022s-1.594 0.665-1.707 1.69z"></path>
<path d="M5.988 4.221c0.331 0.695 0.144 1.475-0.418 1.743s-1.286-0.078-1.617-0.772c-0.331-0.695-0.144-1.475 0.418-1.743s1.286 0.078 1.617 0.772z"></path>
<path d="M31.871 10.985c-0.331 0.695-0.144 1.475 0.418 1.743s1.286-0.078 1.617-0.772c0.331-0.695 0.144-1.475-0.418-1.743s-1.286 0.078-1.617 0.772z"></path>
<path d="M3.148 6.187c0.551 0.371 0.754 1.034 0.454 1.48s-0.991 0.506-1.542 0.135c-0.551-0.371-0.754-1.034-0.454-1.48s0.991-0.506 1.542-0.135z"></path>
<path d="M34.71 12.951c-0.551 0.371-0.754 1.034-0.454 1.48s0.991 0.506 1.542 0.135c0.551-0.371 0.754-1.034 0.454-1.48s-0.991-0.506-1.542-0.135z"></path>
<path d="M1.428 9.155c0.582 0.128 0.97 0.613 0.866 1.084s-0.659 0.749-1.241 0.621c-0.582-0.128-0.97-0.613-0.866-1.084s0.659-0.749 1.241-0.621z"></path>
<path d="M36.43 15.918c-0.582 0.128-0.97 0.613-0.866 1.084s0.659 0.749 1.241 0.621c0.582-0.128 0.97-0.613 0.866-1.084s-0.659-0.749-1.241-0.621z"></path>
</symbol>
<symbol id="icon-foots-line" viewBox="0 0 25 32">
<path d="M36.43 15.918c-0.582 0.128-0.97 0.613-0.866 1.084s0.659 0.749 1.241 0.621c0.582-0.128 0.97-0.613 0.866-1.084s-0.659-0.749-1.241-0.621z"></path>
</symbol>
<symbol id="icon-Im_line1" viewBox="0 0 79 32">
<path fill="none" stroke="#d69914" style="stroke: var(--color5, #d69914)" stroke-linejoin="miter" stroke-linecap="butt" stroke-miterlimit="4" stroke-width="1.0667" d="M1.6 0.533c-0.463 18.502 32.533 31.467 37.333 17.6 1.142-3.299-4.665-7.838-9.067-4.267-6.527 5.297-4.075 9.611 1.067 13.867 15.467 12.8 33.067-17.6 47.023 2.811"></path>
</symbol>
<symbol id="icon-Im_line2" viewBox="0 0 15 32">
<path fill="none" stroke="#d69914" style="stroke: var(--color5, #d69914)" stroke-linejoin="miter" stroke-linecap="butt" stroke-miterlimit="4" stroke-width="0.6531" d="M3.592 0.326c-12.735 20.898 20.689 12.514 8.163 31.020"></path>
</symbol>
<symbol id="icon-Im_line3" viewBox="0 0 9 32">
<path fill="none" stroke="#d69914" style="stroke: var(--color5, #d69914)" stroke-linejoin="miter" stroke-linecap="butt" stroke-miterlimit="4" stroke-width="0.4638" d="M6.725 0.232c3.246 3.014 2.087 8.348 0.928 10.899s-5.008 4.188-6.805 1.855c-1.797-2.333 2.087-3.942 4.406 3.246s-9.156 7.168 1.153 15.226"></path>
</symbol>
<symbol id="icon-Im_line4" viewBox="0 0 18 32">
<path fill="none" stroke="#d69914" style="stroke: var(--color5, #d69914)" stroke-linejoin="miter" stroke-linecap="butt" stroke-miterlimit="4" stroke-width="0.3765" d="M15.147 0.492c2.95 3.751-0.015 6.887-0.771 10.167s-0.293 8.371 2.598 7.033c2.891-1.338-0.869-6.698-4.905-3.267s1.871 14.885-11.985 17.087"></path>
</symbol>
<symbol id="icon-instagram" viewBox="0 0 32 32">
<path fill="#01a3a4" style="fill: var(--color4, #01a3a4)" d="M27.314 4.687c-3.022-3.022-7.040-4.687-11.314-4.687s-8.291 1.664-11.313 4.687c-3.022 3.022-4.687 7.040-4.687 11.313s1.664 8.292 4.687 11.314c3.022 3.022 7.040 4.686 11.313 4.686s8.292-1.664 11.314-4.686c3.022-3.022 4.686-7.040 4.686-11.314s-1.664-8.292-4.686-11.313zM26.607 26.607c-2.833 2.833-6.6 4.393-10.607 4.393s-7.773-1.56-10.606-4.393c-2.833-2.833-4.394-6.6-4.394-10.607s1.56-7.773 4.394-10.606 6.6-4.394 10.606-4.394c4.007 0 7.773 1.56 10.607 4.394s4.393 6.6 4.393 10.606c0 4.007-1.56 7.774-4.393 10.607z"></path>
<path fill="#01a3a4" style="fill: var(--color4, #01a3a4)" d="M20.202 7.978h-8.373c-2.123 0-3.85 1.727-3.85 3.85v8.373c0 2.123 1.727 3.85 3.85 3.85h8.373c2.123 0 3.85-1.727 3.85-3.85v-8.373c0-2.123-1.727-3.85-3.85-3.85zM23.039 20.202c0 1.564-1.272 2.837-2.836 2.837h-8.373c-1.564 0-2.836-1.273-2.836-2.837v-8.373c0-1.564 1.272-2.836 2.836-2.836h8.373c1.564 0 2.836 1.272 2.836 2.836v8.373z"></path>
<path fill="#01a3a4" style="fill: var(--color4, #01a3a4)" d="M20.508 10.916c-0.34 0-0.617 0.277-0.617 0.617s0.277 0.617 0.617 0.617c0.34 0 0.617-0.277 0.617-0.617s-0.277-0.617-0.617-0.617z"></path>
<path fill="#01a3a4" style="fill: var(--color4, #01a3a4)" d="M16.015 12.076c-2.172 0-3.94 1.767-3.94 3.94s1.767 3.94 3.94 3.94c2.172 0 3.94-1.767 3.94-3.94s-1.768-3.94-3.94-3.94zM16.015 18.941c-1.613 0-2.926-1.313-2.926-2.926s1.313-2.925 2.926-2.925c1.613 0 2.926 1.312 2.926 2.925s-1.312 2.926-2.926 2.926z"></path>
</symbol>
<symbol id="icon-mob-menu" viewBox="0 0 28 32">
<path d="M27.962 18.057c0 7.7-6.242 13.943-13.943 13.943s-13.943-6.242-13.943-13.943c0-7.7 6.242-13.943 13.943-13.943s13.943 6.242 13.943 13.943zM2.841 18.057c0 6.173 5.004 11.178 11.178 11.178s11.178-5.005 11.178-11.178c0-6.173-5.005-11.178-11.178-11.178s-11.178 5.004-11.178 11.178z"></path>
<path d="M6.4 2.438c0 1.347-1.092 2.438-2.438 2.438s-2.438-1.092-2.438-2.438c0-1.347 1.092-2.438 2.438-2.438s2.438 1.092 2.438 2.438zM2.857 2.438c0 0.61 0.495 1.105 1.105 1.105s1.105-0.495 1.105-1.105c0-0.61-0.495-1.105-1.105-1.105s-1.105 0.495-1.105 1.105z"></path>
</symbol>
<symbol id="icon-post-l" viewBox="0 0 32 32">
<path d="M32 16c0 8.837-7.163 16-16 16s-16-7.163-16-16c0-8.837 7.163-16 16-16s16 7.163 16 16zM3.173 16c0 7.084 5.743 12.827 12.827 12.827s12.827-5.743 12.827-12.827c0-7.084-5.743-12.827-12.827-12.827s-12.827 5.743-12.827 12.827z"></path>
</symbol>
<symbol id="icon-post-r" viewBox="0 0 32 32">
<path d="M32 16c0 8.837-7.163 16-16 16s-16-7.163-16-16c0-8.837 7.163-16 16-16s16 7.163 16 16zM2.537 16c0 7.436 6.028 13.463 13.463 13.463s13.463-6.028 13.463-13.463c0-7.436-6.028-13.463-13.463-13.463s-13.463 6.028-13.463 13.463z"></path>
</symbol>
<symbol id="icon-rating" viewBox="0 0 152 32">
<path fill="#e5e5e5" style="fill: var(--color6, #e5e5e5)" d="M125.963 15.373l0.648-6.353h6.528v1.496h-5.154l-0.385 3.474c0.624-0.367 1.333-0.551 2.127-0.551 1.161 0 2.083 0.385 2.765 1.155 0.682 0.764 1.024 1.8 1.024 3.106 0 1.313-0.356 2.348-1.068 3.106-0.707 0.753-1.695 1.129-2.967 1.129-1.125 0-2.044-0.312-2.756-0.936s-1.117-1.488-1.216-2.59h1.531c0.099 0.729 0.359 1.28 0.779 1.654 0.421 0.367 0.974 0.551 1.662 0.551 0.753 0 1.341-0.257 1.768-0.77 0.431-0.513 0.648-1.222 0.648-2.126 0-0.852-0.233-1.534-0.7-2.047-0.461-0.519-1.076-0.779-1.846-0.779-0.707 0-1.261 0.155-1.663 0.464l-0.429 0.35-1.295-0.332zM135.771 22.854h-1.391l5.321-13.834h1.382l-5.312 13.834zM143.41 15.373l0.648-6.353h6.528v1.496h-5.155l-0.385 3.474c0.625-0.367 1.334-0.551 2.127-0.551 1.16 0 2.081 0.385 2.765 1.155 0.682 0.764 1.023 1.8 1.023 3.106 0 1.313-0.356 2.348-1.068 3.106-0.705 0.753-1.693 1.129-2.966 1.129-1.125 0-2.044-0.312-2.756-0.936s-1.117-1.488-1.216-2.59h1.531c0.099 0.729 0.358 1.28 0.778 1.654 0.42 0.367 0.974 0.551 1.663 0.551 0.753 0 1.341-0.257 1.768-0.77 0.431-0.513 0.648-1.222 0.648-2.126 0-0.852-0.233-1.534-0.7-2.047-0.461-0.519-1.076-0.779-1.846-0.779-0.707 0-1.261 0.155-1.663 0.464l-0.429 0.35-1.295-0.332z"></path>
<path fill="#ffdc64" style="fill: var(--color7, #ffdc64)" d="M117.277 12.65l-6.633-0.615-2.635-6.119c-0.184-0.428-0.792-0.428-0.976 0l-2.635 6.119-6.634 0.615c-0.464 0.043-0.652 0.621-0.302 0.929l5.005 4.397-1.465 6.499c-0.103 0.455 0.389 0.812 0.79 0.574l5.728-3.401 5.728 3.401c0.401 0.238 0.893-0.119 0.79-0.574l-1.465-6.499 5.005-4.397c0.35-0.308 0.163-0.886-0.302-0.929z"></path>
<path fill="#ffc850" style="fill: var(--color8, #ffc850)" d="M108.008 5.916c-0.184-0.428-0.792-0.428-0.976 0l-2.635 6.119-6.634 0.615c-0.464 0.043-0.652 0.621-0.302 0.929l5.005 4.397-1.465 6.499c-0.103 0.455 0.389 0.812 0.79 0.574l1.279-0.759c0.177-7.284 3.561-12.413 6.241-15.348l-1.303-3.025z"></path>
<path fill="#ffdc64" style="fill: var(--color7, #ffdc64)" d="M92.957 12.65l-6.633-0.615-2.635-6.119c-0.184-0.428-0.792-0.428-0.976 0l-2.635 6.119-6.634 0.615c-0.464 0.043-0.652 0.621-0.302 0.929l5.005 4.397-1.465 6.499c-0.103 0.455 0.389 0.812 0.79 0.574l5.728-3.401 5.728 3.401c0.401 0.238 0.893-0.119 0.79-0.574l-1.465-6.499 5.005-4.397c0.35-0.308 0.163-0.886-0.302-0.929z"></path>
<path fill="#ffc850" style="fill: var(--color8, #ffc850)" d="M83.688 5.916c-0.184-0.428-0.792-0.428-0.976 0l-2.635 6.119-6.634 0.615c-0.464 0.043-0.652 0.621-0.302 0.929l5.005 4.397-1.465 6.499c-0.103 0.455 0.389 0.812 0.79 0.574l1.279-0.759c0.177-7.284 3.561-12.413 6.241-15.348l-1.303-3.025z"></path>
<path fill="#ffdc64" style="fill: var(--color7, #ffdc64)" d="M68.637 12.65l-6.633-0.615-2.635-6.119c-0.184-0.428-0.792-0.428-0.976 0l-2.635 6.119-6.634 0.615c-0.464 0.043-0.652 0.621-0.302 0.929l5.005 4.397-1.465 6.499c-0.103 0.455 0.389 0.812 0.79 0.574l5.728-3.401 5.728 3.401c0.401 0.238 0.893-0.119 0.79-0.574l-1.465-6.499 5.005-4.397c0.35-0.308 0.163-0.886-0.302-0.929z"></path>
<path fill="#ffc850" style="fill: var(--color8, #ffc850)" d="M59.368 5.916c-0.184-0.428-0.792-0.428-0.976 0l-2.635 6.119-6.634 0.615c-0.464 0.043-0.652 0.621-0.302 0.929l5.005 4.397-1.465 6.499c-0.103 0.455 0.389 0.812 0.79 0.574l1.279-0.759c0.177-7.284 3.561-12.413 6.241-15.348l-1.303-3.025z"></path>
<path fill="#ffdc64" style="fill: var(--color7, #ffdc64)" d="M44.317 12.65l-6.633-0.615-2.635-6.119c-0.184-0.428-0.792-0.428-0.976 0l-2.635 6.119-6.634 0.615c-0.464 0.043-0.652 0.621-0.302 0.929l5.005 4.397-1.465 6.499c-0.103 0.455 0.389 0.812 0.79 0.574l5.728-3.401 5.728 3.401c0.401 0.238 0.893-0.119 0.79-0.574l-1.465-6.499 5.005-4.397c0.35-0.308 0.163-0.886-0.302-0.929z"></path>
<path fill="#ffc850" style="fill: var(--color8, #ffc850)" d="M35.048 5.916c-0.184-0.428-0.792-0.428-0.976 0l-2.635 6.119-6.634 0.615c-0.464 0.043-0.652 0.621-0.302 0.929l5.005 4.397-1.465 6.499c-0.103 0.455 0.389 0.812 0.79 0.574l1.279-0.759c0.177-7.284 3.561-12.413 6.241-15.348l-1.303-3.025z"></path>
<path fill="#ffdc64" style="fill: var(--color7, #ffdc64)" d="M19.997 12.65l-6.633-0.615-2.635-6.119c-0.184-0.428-0.792-0.428-0.976 0l-2.635 6.119-6.634 0.615c-0.464 0.043-0.652 0.621-0.302 0.929l5.005 4.397-1.465 6.499c-0.103 0.455 0.389 0.812 0.79 0.574l5.728-3.401 5.728 3.401c0.401 0.238 0.893-0.119 0.79-0.574l-1.465-6.499 5.005-4.397c0.35-0.308 0.163-0.886-0.302-0.929z"></path>
<path fill="#ffc850" style="fill: var(--color8, #ffc850)" d="M10.728 5.916c-0.184-0.428-0.792-0.428-0.976 0l-2.635 6.119-6.634 0.615c-0.464 0.043-0.652 0.621-0.302 0.929l5.005 4.397-1.465 6.499c-0.103 0.455 0.389 0.812 0.79 0.574l1.279-0.759c0.177-7.284 3.561-12.413 6.241-15.348l-1.303-3.025z"></path>
</symbol>
<symbol id="icon-twitter" viewBox="0 0 32 32">
<path fill="#01a3a4" style="fill: var(--color4, #01a3a4)" d="M27.314 4.686c-3.022-3.022-7.040-4.686-11.314-4.686s-8.291 1.664-11.313 4.686-4.686 7.040-4.686 11.314c0 4.274 1.664 8.292 4.686 11.314s7.040 4.686 11.313 4.686c4.274 0 8.292-1.664 11.314-4.686s4.686-7.040 4.686-11.314c0-4.274-1.664-8.291-4.686-11.313zM26.607 26.607c-2.833 2.833-6.6 4.393-10.607 4.393s-7.773-1.56-10.606-4.393c-2.833-2.833-4.394-6.6-4.394-10.607s1.56-7.773 4.394-10.606c2.833-2.833 6.6-4.394 10.606-4.394s7.774 1.56 10.607 4.394c2.833 2.833 4.393 6.6 4.393 10.606s-1.56 7.774-4.393 10.607z"></path>
<path fill="#01a3a4" style="fill: var(--color4, #01a3a4)" d="M24.916 12.173c0.123-0.185 0.11-0.429-0.033-0.599s-0.381-0.225-0.585-0.135c-0.013 0.006-0.026 0.011-0.038 0.017 0.118-0.211 0.215-0.434 0.289-0.667 0.063-0.198-0.002-0.414-0.165-0.544s-0.388-0.145-0.567-0.039c-0.504 0.3-1.044 0.52-1.608 0.656-0.675-0.611-1.563-0.957-2.478-0.957-2.029 0-3.68 1.65-3.68 3.678 0 0.058 0.001 0.116 0.004 0.174-2.179-0.266-4.19-1.37-5.589-3.087-0.104-0.127-0.263-0.195-0.427-0.183s-0.31 0.105-0.393 0.247c-0.326 0.559-0.498 1.199-0.498 1.85 0 0.622 0.155 1.221 0.441 1.751-0.077 0.005-0.152 0.028-0.22 0.068-0.153 0.090-0.246 0.254-0.246 0.431v0.040c0 1.102 0.494 2.112 1.288 2.795-0.017 0.015-0.034 0.031-0.049 0.048-0.116 0.132-0.155 0.315-0.101 0.483 0.342 1.068 1.141 1.896 2.142 2.295-0.813 0.409-1.71 0.621-2.645 0.621-0.236 0-0.472-0.014-0.701-0.040-0.231-0.027-0.45 0.109-0.529 0.328s0.005 0.463 0.201 0.589c1.538 0.987 3.317 1.508 5.145 1.508 3.591 0 5.839-1.695 7.093-3.118 1.561-1.77 2.455-4.114 2.455-6.431 0-0.057-0-0.113-0.001-0.167 0.581-0.454 1.083-0.996 1.494-1.612zM22.621 13.136c-0.137 0.099-0.215 0.261-0.207 0.43 0.006 0.123 0.009 0.249 0.009 0.386 0 2.076-0.804 4.179-2.206 5.769-1.117 1.268-3.125 2.779-6.343 2.779-0.984 0-1.953-0.169-2.868-0.496 1.094-0.198 2.118-0.657 3.010-1.356 0.166-0.131 0.233-0.352 0.166-0.552s-0.253-0.337-0.465-0.341c-0.88-0.017-1.677-0.46-2.158-1.158 0.251-0.015 0.5-0.056 0.744-0.122 0.224-0.060 0.377-0.267 0.369-0.499s-0.173-0.428-0.401-0.474c-0.996-0.201-1.774-0.949-2.045-1.891 0.267 0.071 0.543 0.111 0.82 0.121 0.224 0.008 0.424-0.134 0.493-0.347s-0.013-0.445-0.198-0.569c-0.746-0.498-1.192-1.332-1.192-2.232 0-0.228 0.029-0.454 0.085-0.672 1.676 1.73 3.957 2.774 6.375 2.895 0.158 0.008 0.308-0.059 0.409-0.179s0.139-0.281 0.103-0.434c-0.046-0.197-0.069-0.402-0.069-0.611 0-1.477 1.202-2.678 2.68-2.678 0.738 0 1.451 0.308 1.957 0.845 0.118 0.125 0.292 0.181 0.46 0.148 0.189-0.037 0.377-0.082 0.562-0.135-0.093 0.074-0.191 0.142-0.294 0.203-0.202 0.121-0.292 0.367-0.216 0.59s0.297 0.363 0.532 0.335c0.081-0.009 0.163-0.020 0.244-0.033-0.115 0.097-0.233 0.189-0.355 0.277z"></path>
</symbol>
<symbol id="icon-wave" viewBox="0 0 185 32">
<path stroke-linejoin="round" stroke-linecap="round" stroke-miterlimit="4" stroke-width="14.2222" d="M7.111 24.889l21.333-17.778 21.333 17.778 21.333-17.778 21.333 17.778 21.333-17.778 21.333 17.778 21.333-17.778 21.333 17.778"></path>
</symbol>
<symbol id="icon-works-elipse-left" viewBox="0 0 32 32">
<path d="M32 16c0 8.837-7.163 16-16 16s-16-7.163-16-16c0-8.837 7.163-16 16-16s16 7.163 16 16zM7.216 16c0 4.851 3.933 8.784 8.784 8.784s8.784-3.933 8.784-8.784c0-4.851-3.933-8.784-8.784-8.784s-8.784 3.933-8.784 8.784z"></path>
</symbol>
<symbol id="icon-works-elipse-right" viewBox="0 0 32 32">
<path d="M32 16c0 8.837-7.163 16-16 16s-16-7.163-16-16c0-8.837 7.163-16 16-16s16 7.163 16 16zM1.949 16c0 7.76 6.291 14.051 14.051 14.051s14.051-6.291 14.051-14.051c0-7.76-6.291-14.051-14.051-14.051s-14.051 6.291-14.051 14.051z"></path>
</symbol>
<symbol id="icon-youtube" viewBox="0 0 32 32">
<path fill="#01a3a4" style="fill: var(--color4, #01a3a4)" d="M27.314 4.686c-3.022-3.022-7.040-4.686-11.314-4.686s-8.291 1.664-11.313 4.686-4.686 7.040-4.686 11.314c0 4.274 1.664 8.292 4.686 11.314s7.040 4.686 11.313 4.686c4.274 0 8.292-1.664 11.314-4.686s4.686-7.040 4.686-11.314c0-4.274-1.664-8.291-4.686-11.313zM26.607 26.607c-2.833 2.833-6.6 4.393-10.607 4.393s-7.773-1.56-10.606-4.393c-2.833-2.833-4.394-6.6-4.394-10.607s1.56-7.773 4.394-10.606c2.833-2.833 6.6-4.394 10.606-4.394s7.774 1.56 10.607 4.394c2.833 2.833 4.393 6.6 4.393 10.606s-1.56 7.774-4.393 10.607z"></path>
<path fill="#01a3a4" style="fill: var(--color4, #01a3a4)" d="M24.613 12.451c-0.019-0.14-0.198-1.383-0.78-2.015-0.695-0.774-1.487-0.854-1.867-0.893-0.033-0.003-0.064-0.006-0.091-0.010-0.007-0.001-0.015-0.002-0.022-0.002-2.297-0.178-5.765-0.18-5.8-0.18h-0.008c-0.035 0-3.502 0.002-5.799 0.18-0.008 0.001-0.015 0.001-0.022 0.002-0.027 0.003-0.058 0.006-0.091 0.010-0.38 0.039-1.171 0.119-1.867 0.893-0.582 0.632-0.761 1.875-0.78 2.015-0 0.003-0.001 0.006-0.001 0.008-0.007 0.059-0.168 1.466-0.168 2.9v1.332c0 1.435 0.161 2.841 0.168 2.9 0 0.003 0.001 0.005 0.001 0.008 0.019 0.14 0.198 1.382 0.78 2.014 0.644 0.716 1.459 0.82 1.898 0.877 0.077 0.010 0.144 0.018 0.189 0.028 0.015 0.003 0.031 0.005 0.047 0.007 1.325 0.136 5.469 0.177 5.651 0.179 0.035 0 3.505-0.008 5.802-0.184 0.009-0.001 0.017-0.002 0.025-0.003 0.028-0.004 0.060-0.007 0.094-0.010 0.38-0.040 1.169-0.122 1.862-0.893 0.582-0.631 0.762-1.874 0.78-2.014 0-0.003 0.001-0.006 0.001-0.008 0.007-0.059 0.168-1.466 0.168-2.9v-1.332c0-1.434-0.161-2.841-0.168-2.9-0-0.003-0.001-0.005-0.001-0.008zM23.782 16.691c0 1.337-0.151 2.696-0.161 2.781-0.038 0.278-0.212 1.127-0.525 1.465-0.002 0.002-0.004 0.004-0.006 0.006-0.436 0.487-0.91 0.536-1.224 0.569-0.037 0.004-0.072 0.008-0.104 0.012-2.259 0.172-5.681 0.18-5.71 0.18-0.042-0.001-4.227-0.043-5.532-0.172-0.072-0.013-0.15-0.023-0.232-0.034-0.374-0.048-0.887-0.114-1.284-0.556-0.002-0.002-0.004-0.004-0.006-0.006-0.278-0.3-0.469-1.056-0.525-1.465-0.010-0.087-0.161-1.444-0.161-2.781v-1.332c0-1.338 0.151-2.697 0.161-2.781 0.038-0.278 0.212-1.128 0.525-1.467 0.002-0.002 0.003-0.004 0.005-0.006 0.438-0.488 0.912-0.536 1.226-0.568 0.036-0.004 0.070-0.007 0.101-0.011 2.258-0.174 5.677-0.176 5.711-0.176h0.008c0.034 0 3.453 0.002 5.712 0.176 0.031 0.004 0.064 0.007 0.101 0.011 0.314 0.032 0.788 0.080 1.226 0.568 0.002 0.002 0.004 0.004 0.005 0.006 0.278 0.3 0.469 1.057 0.525 1.467 0.010 0.087 0.161 1.445 0.161 2.781l0 1.332z"></path>
<path fill="#01a3a4" style="fill: var(--color4, #01a3a4)" d="M19.397 15.599l-5.147-3.088c-0.154-0.093-0.347-0.095-0.504-0.006s-0.254 0.255-0.254 0.435v6.177c0 0.18 0.097 0.346 0.254 0.435 0.076 0.043 0.161 0.065 0.246 0.065 0.089 0 0.178-0.024 0.257-0.071l5.147-3.088c0.151-0.090 0.243-0.253 0.243-0.429s-0.092-0.338-0.243-0.429zM14.493 18.233v-4.411l3.676 2.205-3.676 2.205z"></path>
</symbol>
</defs>
</svg>
