<svg width="90" height="423" viewBox="0 0 90 423" fill="none" xmlns="http://www.w3.org/2000/svg">
<path opacity="0.5" d="M1 -3.75497e-06L0.999999 13.75L88.5 13.75L88.5 6.97788e-08L1 -3.75497e-06ZM0.999997 53.1787L0.999997 67.3037L88.5 67.3037L88.5 55.0537L36.125 55.0537L88.5 40.9287L88.5 23.6787L0.999999 23.6787L0.999998 36.0537L64.375 36.0537L0.999997 53.1787ZM67.5 75.3984C42.5 75.3984 39.125 102.273 21.125 102.273C14.875 102.273 12.625 99.5234 12.625 95.1484C12.625 90.7734 14.875 88.0234 21.125 88.0234L27.375 88.0234L27.375 75.0234L22 75.0234C8 75.0234 -3.85141e-06 82.0234 -4.44152e-06 95.5234C-5.03162e-06 109.023 7.99999 116.023 22 116.023C47 116.023 50.375 89.1484 68.375 89.1484C74.625 89.1484 77 91.6484 77 96.0234C77 100.398 74.625 102.898 68.375 102.898L64.75 102.898L64.75 115.898L67.5 115.898C81.5 115.898 89.5 109.023 89.5 95.6484C89.5 82.2734 81.5 75.3984 67.5 75.3984ZM76 119.901L76 134.276L0.999994 134.276L0.999993 148.026L76 148.026L76 162.401L88.5 162.401L88.5 119.901L76 119.901ZM88.5 194.196L88.5 174.071L0.999993 160.071L0.999992 172.696L16.875 175.071L16.875 191.946L0.999991 194.321L0.999991 208.196L88.5 194.196ZM73 183.446L28.75 190.071L28.75 176.821L73 183.446ZM37.25 235.103L37.25 241.353L21.125 241.353C14.875 241.353 12.625 238.603 12.625 234.228C12.625 229.853 14.875 227.103 21.125 227.103L68.375 227.103C74.625 227.103 77 229.853 77 234.228C77 238.603 74.625 241.353 68.375 241.353L59 241.353L59 254.353L67.5 254.353C81.5 254.353 89.5 247.353 89.5 233.853C89.5 220.353 81.5 213.353 67.5 213.353L22 213.353C7.99999 213.353 -9.89797e-06 220.353 -1.04881e-05 233.853C-1.10782e-05 247.353 7.99999 254.353 22 254.353L49.75 254.353L49.75 235.103L37.25 235.103ZM0.999986 305.934C4.24999 304.559 7.37499 304.434 11.625 304.434L25.125 304.434C34.25 304.434 40.875 302.184 43.75 295.309C46.625 301.434 52.5 304.309 61.5 304.309L68.375 304.309C81.875 304.309 88.5 298.184 88.5 283.934L88.5 263.184L0.999988 263.184L0.999988 276.934L36.625 276.934L36.625 281.684C36.625 287.934 33.625 290.684 25.5 290.684L11.75 290.684C4.62499 290.684 3.24999 291.184 0.999987 291.934L0.999986 305.934ZM76 283.559C76 288.434 73.25 290.559 67 290.559L58.375 290.559C51.375 290.559 49.125 287.434 49.125 282.309L49.125 276.934L76 276.934L76 283.559ZM88.5 343.977L88.5 323.852L0.999986 309.852L0.999986 322.477L16.875 324.852L16.875 341.727L0.999985 344.102L0.999984 357.977L88.5 343.977ZM73 333.227L28.75 339.852L28.75 326.602L73 333.227ZM88.5 383.38L88.5 364.255L0.999984 364.255L0.999983 376.255L62.875 376.255L0.999983 386.505L0.999982 399.505L63.75 409.005L0.999982 409.005L0.999981 422.005L88.5 422.005L88.5 402.88L26.375 393.505L88.5 383.38Z" fill="white"/>
</svg>
