<svg width="12" height="10" viewBox="0 0 12 10" fill="none" xmlns="http://www.w3.org/2000/svg">
<path d="M7.43691 1.0236L6.41885 2.06916C6.34917 2.14047 6.34937 2.25434 6.41921 2.32547L8.14439 4.08491L0.683444 4.08491C0.582253 4.08491 0.500118 4.16705 0.500118 4.26824L0.500118 5.73491C0.500118 5.8361 0.582253 5.91824 0.683444 5.91824L8.14439 5.91824L6.41921 7.67768C6.34954 7.74881 6.34937 7.86249 6.41885 7.93379L7.43691 8.97935C7.47137 9.01491 7.51868 9.03491 7.56818 9.03491C7.61768 9.03491 7.66499 9.01474 7.69945 8.97935L11.4481 5.12935C11.4827 5.0938 11.5001 5.04758 11.5001 5.00156C11.5001 4.95537 11.4827 4.90935 11.4481 4.8736L7.69945 1.0236C7.66499 0.98822 7.61768 0.968239 7.56818 0.968239C7.51868 0.968239 7.47137 0.98822 7.43691 1.0236Z" fill="white"/>
</svg>
