<svg viewBox="0 0 12 12" fill="none" xmlns="http://www.w3.org/2000/svg">
<g clip-path="url(#clip0_1_235)">
<path d="M7.43691 2.0236L6.41885 3.06916C6.34917 3.14047 6.34937 3.25434 6.41921 3.32547L8.14439 5.08491L0.683444 5.08491C0.582253 5.08491 0.500118 5.16705 0.500118 5.26824L0.500118 6.73491C0.500118 6.8361 0.582253 6.91824 0.683444 6.91824L8.14439 6.91824L6.41921 8.67768C6.34954 8.74881 6.34937 8.86249 6.41885 8.93379L7.43691 9.97935C7.47137 10.0149 7.51868 10.0349 7.56818 10.0349C7.61768 10.0349 7.66499 10.0147 7.69945 9.97935L11.4481 6.12935C11.4827 6.0938 11.5001 6.04758 11.5001 6.00156C11.5001 5.95537 11.4827 5.90935 11.4481 5.8736L7.69945 2.0236C7.66499 1.98822 7.61768 1.96824 7.56818 1.96824C7.51868 1.96824 7.47137 1.98822 7.43691 2.0236Z" fill="white"/>
</g>
<defs>
<clipPath id="clip0_1_235">
<rect width="11" height="11" fill="white" transform="translate(0.500122 11.5015) rotate(-90)"/>
</clipPath>
</defs>
</svg>
