<svg width="297" height="103" viewBox="0 0 297 103" fill="none" xmlns="http://www.w3.org/2000/svg">
<path d="M61.9131 79.2076C61.9131 91.0817 52.5111 100.708 40.9131 100.708C29.3152 100.708 19.9131 91.0817 19.9131 79.2076C19.9131 67.3334 29.3152 57.7076 40.9131 57.7076C52.5111 57.7076 61.9131 67.3334 61.9131 79.2076ZM23.2424 79.2076C23.2424 89.1992 31.1539 97.299 40.9131 97.299C50.6724 97.299 58.5839 89.1992 58.5839 79.2076C58.5839 69.2159 50.6724 61.1161 40.9131 61.1161C31.1539 61.1161 23.2424 69.2159 23.2424 79.2076Z" fill="url(#paint0_linear_2_57)"/>
<path d="M285.147 19.1965C292.984 29.1588 285.105 37.4914 283.1 46.2032C281.094 54.9151 282.321 68.4396 289.999 64.8854C297.678 61.3311 287.692 47.0949 276.97 56.2069C266.248 65.319 281.938 95.7447 245.134 101.594" stroke="#D69914" stroke-dasharray="5 5"/>
<path d="M211.413 11.3895C218.413 17.8895 215.913 29.3895 213.413 34.8895C210.913 40.3895 202.616 43.9203 198.74 38.8895C194.864 33.8587 203.24 30.3895 208.24 45.8895C213.24 61.3895 188.497 61.3451 210.726 78.721" stroke="#D69914" stroke-dasharray="5 5"/>
<path d="M133.413 20.3894C113.913 52.3893 165.093 39.5519 145.913 67.8894" stroke="#D69914" stroke-dasharray="5 5"/>
<path d="M2.41309 24.3894C1.97946 41.7346 32.9131 53.8894 37.4131 40.8894C38.4838 37.7962 33.0392 33.5408 28.9131 36.8894C22.7939 41.8554 25.0926 45.9 29.9131 49.8894C44.4131 61.8894 60.9131 33.3894 73.9971 52.5249" stroke="#D69914" stroke-dasharray="5 5"/>
<defs>
<linearGradient id="paint0_linear_2_57" x1="28.9942" y1="62.3562" x2="47.2774" y2="100.376" gradientUnits="userSpaceOnUse">
<stop stop-color="#FCDDA9"/>
<stop offset="1" stop-color="#FDBABA"/>
</linearGradient>
</defs>
</svg>
