<svg width="1807" height="671" viewBox="0 0 1807 671" fill="none" xmlns="http://www.w3.org/2000/svg">
<path d="M53 336.5C53 351.136 41.1355 363 26.5 363C11.8645 363 0 351.136 0 336.5C0 321.864 11.8645 310 26.5 310C41.1355 310 53 321.864 53 336.5ZM10.4671 336.5C10.4671 345.355 17.6453 352.533 26.5 352.533C35.3547 352.533 42.5329 345.355 42.5329 336.5C42.5329 327.645 35.3547 320.467 26.5 320.467C17.6453 320.467 10.4671 327.645 10.4671 336.5Z" fill="url(#paint0_linear_1_12)"/>
<path d="M60 122.5C60 136.031 49.031 147 35.5 147C21.969 147 11 136.031 11 122.5C11 108.969 21.969 98 35.5 98C49.031 98 60 108.969 60 122.5ZM14.8841 122.5C14.8841 133.886 24.1142 143.116 35.5 143.116C46.8858 143.116 56.1159 133.886 56.1159 122.5C56.1159 111.114 46.8858 101.884 35.5 101.884C24.1142 101.884 14.8841 111.114 14.8841 122.5Z" fill="url(#paint1_linear_1_12)"/>
<path d="M263 33C263 51.2254 248.225 66 230 66C211.775 66 197 51.2254 197 33C197 14.7746 211.775 0 230 0C248.225 0 263 14.7746 263 33ZM203.545 33C203.545 47.6109 215.389 59.4553 230 59.4553C244.611 59.4553 256.455 47.6109 256.455 33C256.455 18.3891 244.611 6.54471 230 6.54471C215.389 6.54471 203.545 18.3891 203.545 33Z" fill="url(#paint2_linear_1_12)"/>
<path d="M1807 75C1807 84.3888 1799.39 92 1790 92C1780.61 92 1773 84.3888 1773 75C1773 65.6112 1780.61 58 1790 58C1799.39 58 1807 65.6112 1807 75ZM1776.37 75C1776.37 82.5268 1782.47 88.6285 1790 88.6285C1797.53 88.6285 1803.63 82.5268 1803.63 75C1803.63 67.4732 1797.53 61.3715 1790 61.3715C1782.47 61.3715 1776.37 67.4732 1776.37 75Z" fill="url(#paint3_linear_1_12)"/>
<path d="M1599 328C1599 350.644 1580.64 369 1558 369C1535.36 369 1517 350.644 1517 328C1517 305.356 1535.36 287 1558 287C1580.64 287 1599 305.356 1599 328ZM1523.5 328C1523.5 347.054 1538.95 362.5 1558 362.5C1577.05 362.5 1592.5 347.054 1592.5 328C1592.5 308.946 1577.05 293.5 1558 293.5C1538.95 293.5 1523.5 308.946 1523.5 328Z" fill="url(#paint4_linear_1_12)"/>
<path d="M1571 70.5C1571 85.6878 1558.69 98 1543.5 98C1528.31 98 1516 85.6878 1516 70.5C1516 55.3122 1528.31 43 1543.5 43C1558.69 43 1571 55.3122 1571 70.5ZM1533.53 70.5C1533.53 76.004 1538 80.4659 1543.5 80.4659C1549 80.4659 1553.47 76.004 1553.47 70.5C1553.47 64.996 1549 60.5341 1543.5 60.5341C1538 60.5341 1533.53 64.996 1533.53 70.5Z" fill="url(#paint5_linear_1_12)"/>
<path d="M560 202C510 202 527.576 272 503 326C474.076 389.554 447.888 436.529 315 466C137.121 505.449 125 398.153 191 387.153C257 376.153 270 451.153 199 451.153C128 451.153 97 421 82.5638 382.469" stroke="#D69914" stroke-dasharray="10 10"/>
<path d="M588 139C574 66.0001 467 53 424 96.0001" stroke="#D69914" stroke-dasharray="10 10"/>
<path d="M1234 440.326C1288.21 491.184 1382.44 438.859 1391.99 378.801" stroke="#D69914" stroke-dasharray="10 10"/>
<path d="M1702.69 378.133C1688.73 445.081 1625.53 435.188 1581.69 453.291C1537.86 471.393 1485.31 519.311 1527.68 543.242C1570.05 567.174 1594.33 477.045 1517.7 456.608C1441.07 436.172 1369 603 1213 453.291" stroke="#D69914" stroke-dasharray="10 10"/>
<defs>
<linearGradient id="paint0_linear_1_12" x1="26.5" y1="310" x2="26.5" y2="363" gradientUnits="userSpaceOnUse">
<stop stop-color="#74E6CF"/>
<stop offset="1" stop-color="#C0E594"/>
</linearGradient>
<linearGradient id="paint1_linear_1_12" x1="21.5946" y1="103.297" x2="42.1216" y2="147" gradientUnits="userSpaceOnUse">
<stop stop-color="#FCDDA9"/>
<stop offset="1" stop-color="#FDBABA"/>
</linearGradient>
<linearGradient id="paint2_linear_1_12" x1="209.5" y1="6.5" x2="263" y2="73.5" gradientUnits="userSpaceOnUse">
<stop stop-color="#74E6CF"/>
<stop offset="1" stop-color="#C0E594"/>
</linearGradient>
<linearGradient id="paint3_linear_1_12" x1="1790" y1="58" x2="1790" y2="92" gradientUnits="userSpaceOnUse">
<stop stop-color="#74E6CF"/>
<stop offset="1" stop-color="#C0E594"/>
</linearGradient>
<linearGradient id="paint4_linear_1_12" x1="1558" y1="287" x2="1558" y2="369" gradientUnits="userSpaceOnUse">
<stop stop-color="#FDBABA"/>
<stop offset="1" stop-color="#FCDDA9"/>
</linearGradient>
<linearGradient id="paint5_linear_1_12" x1="1527.89" y1="48.9459" x2="1550.93" y2="98" gradientUnits="userSpaceOnUse">
<stop stop-color="#FCDDA9"/>
<stop offset="1" stop-color="#FDBABA"/>
</linearGradient>
</defs>
</svg>
