<svg width="92" height="16" viewBox="0 0 92 16" fill="none" xmlns="http://www.w3.org/2000/svg">
<g clip-path="url(#clip0_1_325)">
<path d="M91.6224 5.88281L86.44 5.40216L84.3813 0.621888C84.2372 0.28717 83.7626 0.28717 83.6185 0.621888L81.5599 5.40219L76.3774 5.88281C76.0146 5.91647 75.8679 6.36781 76.1417 6.60831L80.0519 10.0434L78.9076 15.1207C78.8274 15.4762 79.2114 15.7552 79.5247 15.5691L83.9999 12.9118L88.4751 15.5691C88.7885 15.7552 89.1725 15.4762 89.0923 15.1207L87.948 10.0434L91.8582 6.60831C92.1319 6.36781 91.9853 5.91647 91.6224 5.88281Z" fill="#FFDC64"/>
<path d="M84.3813 0.621888C84.2372 0.28717 83.7626 0.28717 83.6185 0.621888L81.5599 5.40219L76.3774 5.88281C76.0146 5.91647 75.8679 6.36781 76.1417 6.60831L80.0519 10.0434L78.9076 15.1207C78.8274 15.4762 79.2114 15.7552 79.5247 15.5691L80.5236 14.976C80.6618 9.28537 83.3059 5.27797 85.3992 2.98551L84.3813 0.621888Z" fill="#FFC850"/>
</g>
<g clip-path="url(#clip1_1_325)">
<path d="M72.6224 5.88281L67.44 5.40216L65.3813 0.621888C65.2372 0.28717 64.7626 0.28717 64.6185 0.621888L62.5599 5.40219L57.3774 5.88281C57.0146 5.91647 56.8679 6.36781 57.1417 6.60831L61.0519 10.0434L59.9076 15.1207C59.8274 15.4762 60.2114 15.7552 60.5247 15.5691L64.9999 12.9118L69.4751 15.5691C69.7885 15.7552 70.1725 15.4762 70.0923 15.1207L68.948 10.0434L72.8582 6.60831C73.1319 6.36781 72.9853 5.91647 72.6224 5.88281Z" fill="#FFDC64"/>
<path d="M65.3813 0.621888C65.2372 0.28717 64.7626 0.28717 64.6185 0.621888L62.5599 5.40219L57.3774 5.88281C57.0146 5.91647 56.8679 6.36781 57.1417 6.60831L61.0519 10.0434L59.9076 15.1207C59.8274 15.4762 60.2114 15.7552 60.5247 15.5691L61.5236 14.976C61.6618 9.28537 64.3059 5.27797 66.3992 2.98551L65.3813 0.621888Z" fill="#FFC850"/>
</g>
<g clip-path="url(#clip2_1_325)">
<path d="M53.6224 5.88281L48.44 5.40216L46.3813 0.621888C46.2372 0.28717 45.7626 0.28717 45.6185 0.621888L43.5599 5.40219L38.3774 5.88281C38.0146 5.91647 37.8679 6.36781 38.1417 6.60831L42.0519 10.0434L40.9076 15.1207C40.8274 15.4762 41.2114 15.7552 41.5247 15.5691L45.9999 12.9118L50.4751 15.5691C50.7885 15.7552 51.1725 15.4762 51.0923 15.1207L49.948 10.0434L53.8582 6.60831C54.1319 6.36781 53.9853 5.91647 53.6224 5.88281Z" fill="#FFDC64"/>
<path d="M46.3813 0.621888C46.2372 0.28717 45.7626 0.28717 45.6185 0.621888L43.5599 5.40219L38.3774 5.88281C38.0146 5.91647 37.8679 6.36781 38.1417 6.60831L42.0519 10.0434L40.9076 15.1207C40.8274 15.4762 41.2114 15.7552 41.5247 15.5691L42.5236 14.976C42.6618 9.28537 45.3059 5.27797 47.3992 2.98551L46.3813 0.621888Z" fill="#FFC850"/>
</g>
<g clip-path="url(#clip3_1_325)">
<path d="M34.6224 5.88281L29.44 5.40216L27.3813 0.621888C27.2372 0.28717 26.7626 0.28717 26.6185 0.621888L24.5599 5.40219L19.3774 5.88281C19.0146 5.91647 18.8679 6.36781 19.1417 6.60831L23.0519 10.0434L21.9076 15.1207C21.8274 15.4762 22.2114 15.7552 22.5247 15.5691L26.9999 12.9118L31.4751 15.5691C31.7885 15.7552 32.1725 15.4762 32.0923 15.1207L30.948 10.0434L34.8582 6.60831C35.1319 6.36781 34.9853 5.91647 34.6224 5.88281Z" fill="#FFDC64"/>
<path d="M27.3813 0.621888C27.2372 0.28717 26.7626 0.28717 26.6185 0.621888L24.5599 5.40219L19.3774 5.88281C19.0146 5.91647 18.8679 6.36781 19.1417 6.60831L23.0519 10.0434L21.9076 15.1207C21.8274 15.4762 22.2114 15.7552 22.5247 15.5691L23.5236 14.976C23.6618 9.28537 26.3059 5.27797 28.3992 2.98551L27.3813 0.621888Z" fill="#FFC850"/>
</g>
<g clip-path="url(#clip4_1_325)">
<path d="M15.6224 5.88281L10.44 5.40216L8.38134 0.621888C8.23721 0.28717 7.76262 0.28717 7.6185 0.621888L5.55991 5.40219L0.377447 5.88281C0.0145727 5.91647 -0.132083 6.36781 0.141698 6.60831L4.05188 10.0434L2.90757 15.1207C2.82744 15.4762 3.21138 15.7552 3.52472 15.5691L7.99993 12.9118L12.4751 15.5691C12.7885 15.7552 13.1725 15.4762 13.0923 15.1207L11.948 10.0434L15.8582 6.60831C16.1319 6.36781 15.9853 5.91647 15.6224 5.88281Z" fill="#FFDC64"/>
<path d="M8.38134 0.621888C8.23721 0.28717 7.76262 0.28717 7.6185 0.621888L5.55991 5.40219L0.377447 5.88281C0.0145727 5.91647 -0.132083 6.36781 0.141698 6.60831L4.05188 10.0434L2.90757 15.1207C2.82744 15.4762 3.21138 15.7552 3.52472 15.5691L4.52356 14.976C4.66181 9.28537 7.30587 5.27797 9.39924 2.98551L8.38134 0.621888Z" fill="#FFC850"/>
</g>
<defs>
<clipPath id="clip0_1_325">
<rect width="16" height="16" fill="white" transform="translate(76)"/>
</clipPath>
<clipPath id="clip1_1_325">
<rect width="16" height="16" fill="white" transform="translate(57)"/>
</clipPath>
<clipPath id="clip2_1_325">
<rect width="16" height="16" fill="white" transform="translate(38)"/>
</clipPath>
<clipPath id="clip3_1_325">
<rect width="16" height="16" fill="white" transform="translate(19)"/>
</clipPath>
<clipPath id="clip4_1_325">
<rect width="16" height="16" fill="white"/>
</clipPath>
</defs>
</svg>
