<svg width="297" height="103" viewBox="0 0 297 103" fill="none" xmlns="http://www.w3.org/2000/svg"><path d="M61.913 79.208c0 11.874-9.402 21.5-21 21.5s-21-9.626-21-21.5c0-11.875 9.402-21.5 21-21.5s21 9.625 21 21.5zm-38.67 0c0 9.991 7.91 18.091 17.67 18.091 9.76 0 17.67-8.1 17.67-18.091 0-9.992-7.91-18.092-17.67-18.092-9.76 0-17.67 8.1-17.67 18.092z" fill="url(#a)"/><path d="M285.147 19.197c7.837 9.962-.042 18.294-2.047 27.006-2.006 8.712-.779 22.237 6.899 18.682 7.679-3.554-2.307-17.79-13.029-8.678-10.722 9.112 4.968 39.538-31.836 45.387M211.413 11.39c7 6.5 4.5 18 2 23.5s-10.797 9.03-14.673 4c-3.876-5.031 4.5-8.5 9.5 7s-19.743 15.455 2.486 32.831M133.413 20.39c-19.5 32 31.68 19.162 12.5 47.5m-143.5-43.5c-.434 17.345 30.5 29.5 35 16.5 1.07-3.094-4.374-7.35-8.5-4-6.12 4.965-3.82 9.01 1 13 14.5 12 31-16.5 44.084 2.635" stroke="#D69914" stroke-dasharray="5 5"/><defs><linearGradient id="a" x1="28.994" y1="62.356" x2="47.277" y2="100.376" gradientUnits="userSpaceOnUse"><stop stop-color="#FCDDA9"/><stop offset="1" stop-color="#FDBABA"/></linearGradient></defs></svg>