<svg width="1807" height="671" viewBox="0 0 1807 671" fill="none" xmlns="http://www.w3.org/2000/svg"><path d="M53 336.5c0 14.636-11.864 26.5-26.5 26.5S0 351.136 0 336.5 11.864 310 26.5 310 53 321.864 53 336.5zm-42.533 0c0 8.855 7.178 16.033 16.033 16.033s16.033-7.178 16.033-16.033-7.178-16.033-16.033-16.033-16.033 7.178-16.033 16.033z" fill="url(#a)"/><path d="M60 122.5c0 13.531-10.969 24.5-24.5 24.5S11 136.031 11 122.5 21.969 98 35.5 98 60 108.969 60 122.5zm-45.116 0c0 11.386 9.23 20.616 20.616 20.616s20.616-9.23 20.616-20.616-9.23-20.616-20.616-20.616-20.616 9.23-20.616 20.616z" fill="url(#b)"/><path d="M263 33c0 18.225-14.775 33-33 33s-33-14.775-33-33 14.775-33 33-33 33 14.775 33 33zm-59.455 0c0 14.61 11.844 26.455 26.455 26.455 14.611 0 26.455-11.844 26.455-26.455 0-14.61-11.844-26.455-26.455-26.455-14.611 0-26.455 11.844-26.455 26.455z" fill="url(#c)"/><path d="M1807 75c0 9.389-7.61 17-17 17s-17-7.611-17-17 7.61-17 17-17 17 7.611 17 17zm-30.63 0c0 7.527 6.1 13.629 13.63 13.629 7.53 0 13.63-6.102 13.63-13.629 0-7.527-6.1-13.629-13.63-13.629-7.53 0-13.63 6.102-13.63 13.629z" fill="url(#d)"/><path d="M1599 328c0 22.644-18.36 41-41 41s-41-18.356-41-41 18.36-41 41-41 41 18.356 41 41zm-75.5 0c0 19.054 15.45 34.5 34.5 34.5s34.5-15.446 34.5-34.5c0-19.054-15.45-34.5-34.5-34.5s-34.5 15.446-34.5 34.5z" fill="url(#e)"/><path d="M1571 70.5c0 15.188-12.31 27.5-27.5 27.5S1516 85.688 1516 70.5s12.31-27.5 27.5-27.5 27.5 12.312 27.5 27.5zm-37.47 0c0 5.504 4.47 9.966 9.97 9.966 5.5 0 9.97-4.462 9.97-9.966s-4.47-9.966-9.97-9.966c-5.5 0-9.97 4.462-9.97 9.966z" fill="url(#f)"/><path d="M560 202c-50 0-32.424 70-57 124-28.924 63.554-55.112 110.529-188 140-177.879 39.449-190-67.847-124-78.847s79 64 8 64S97 421 82.564 382.469M588 139c-14-73-121-86-164-43m810 344.326c54.21 50.858 148.44-1.467 157.99-61.525" stroke="#D69914" stroke-dasharray="10 10"/><path d="M1702.69 378.133c-13.96 66.948-77.16 57.055-121 75.158-43.83 18.102-96.38 66.02-54.01 89.951 42.37 23.932 66.65-66.197-9.98-86.634C1441.07 436.172 1369 603 1213 453.291" stroke="#D69914" stroke-dasharray="10 10"/><defs><linearGradient id="a" x1="26.5" y1="310" x2="26.5" y2="363" gradientUnits="userSpaceOnUse"><stop stop-color="#74E6CF"/><stop offset="1" stop-color="#C0E594"/></linearGradient><linearGradient id="b" x1="21.595" y1="103.297" x2="42.122" y2="147" gradientUnits="userSpaceOnUse"><stop stop-color="#FCDDA9"/><stop offset="1" stop-color="#FDBABA"/></linearGradient><linearGradient id="c" x1="209.5" y1="6.5" x2="263" y2="73.5" gradientUnits="userSpaceOnUse"><stop stop-color="#74E6CF"/><stop offset="1" stop-color="#C0E594"/></linearGradient><linearGradient id="d" x1="1790" y1="58" x2="1790" y2="92" gradientUnits="userSpaceOnUse"><stop stop-color="#74E6CF"/><stop offset="1" stop-color="#C0E594"/></linearGradient><linearGradient id="e" x1="1558" y1="287" x2="1558" y2="369" gradientUnits="userSpaceOnUse"><stop stop-color="#FDBABA"/><stop offset="1" stop-color="#FCDDA9"/></linearGradient><linearGradient id="f" x1="1527.89" y1="48.946" x2="1550.93" y2="98" gradientUnits="userSpaceOnUse"><stop stop-color="#FCDDA9"/><stop offset="1" stop-color="#FDBABA"/></linearGradient></defs></svg>