<svg width="184" height="210" viewBox="0 0 184 210" fill="none" xmlns="http://www.w3.org/2000/svg"><path d="M183.5 118.5c0 50.534-40.966 91.5-91.5 91.5S.5 169.034.5 118.5 41.466 27 92 27s91.5 40.966 91.5 91.5zm-164.853 0c0 40.512 32.841 73.354 73.353 73.354 40.512 0 73.354-32.842 73.354-73.354S132.512 45.147 92 45.147 18.647 77.988 18.647 118.5z" fill="url(#a)"/><path d="M42 16c0 8.837-7.163 16-16 16s-16-7.163-16-16S17.163 0 26 0s16 7.163 16 16zm-23.25 0a7.25 7.25 0 1 0 14.5 0 7.25 7.25 0 0 0-14.5 0z" fill="url(#b)"/><defs><linearGradient id="a" x1="92" y1="27" x2="92" y2="210" gradientUnits="userSpaceOnUse"><stop stop-color="#74E6CF"/><stop offset="1" stop-color="#C0E594"/></linearGradient><linearGradient id="b" x1="16.919" y1="3.459" x2="30.324" y2="32" gradientUnits="userSpaceOnUse"><stop stop-color="#FCDDA9"/><stop offset="1" stop-color="#FDBABA"/></linearGradient></defs></svg>