<svg width="90" height="423" viewBox="0 0 90 423" fill="none" xmlns="http://www.w3.org/2000/svg"><path opacity=".5" d="M1 0v13.75h87.5V0H1zm0 53.179v14.125h87.5v-12.25H36.125L88.5 40.929v-17.25H1v12.375h63.375L1 53.179zm66.5 22.22c-25 0-28.375 26.874-46.375 26.874-6.25 0-8.5-2.75-8.5-7.125s2.25-7.125 8.5-7.125h6.25v-13H22c-14 0-22 7-22 20.5s8 20.5 22 20.5c25 0 28.375-26.875 46.375-26.875 6.25 0 8.625 2.5 8.625 6.875s-2.375 6.875-8.625 6.875H64.75v13h2.75c14 0 22-6.875 22-20.25s-8-20.25-22-20.25zM76 119.9v14.375H1v13.75h75V162.4h12.5v-42.5H76zm12.5 74.295V174.07l-87.5-14v12.625l15.875 2.375v16.875L1 194.321v13.875l87.5-14zM73 183.446l-44.25 6.625v-13.25L73 183.446zm-35.75 51.657v6.25H21.125c-6.25 0-8.5-2.75-8.5-7.125s2.25-7.125 8.5-7.125h47.25c6.25 0 8.625 2.75 8.625 7.125s-2.375 7.125-8.625 7.125H59v13h8.5c14 0 22-7 22-20.5s-8-20.5-22-20.5H22c-14 0-22 7-22 20.5s8 20.5 22 20.5h27.75v-19.25h-12.5zM1 305.934c3.25-1.375 6.375-1.5 10.625-1.5h13.5c9.125 0 15.75-2.25 18.625-9.125 2.875 6.125 8.75 9 17.75 9h6.875c13.5 0 20.125-6.125 20.125-20.375v-20.75H1v13.75h35.625v4.75c0 6.25-3 9-11.125 9H11.75c-7.125 0-8.5.5-10.75 1.25v14zm75-22.375c0 4.875-2.75 7-9 7h-8.625c-7 0-9.25-3.125-9.25-8.25v-5.375H76v6.625zm12.5 60.418v-20.125l-87.5-14v12.625l15.875 2.375v16.875L1 344.102v13.875l87.5-14zM73 333.227l-44.25 6.625v-13.25L73 333.227zm15.5 50.153v-19.125H1v12h61.875L1 386.505v13l62.75 9.5H1v13h87.5V402.88l-62.125-9.375L88.5 383.38z" fill="#fff"/></svg>