<svg width="92" height="16" viewBox="0 0 92 16" fill="none" xmlns="http://www.w3.org/2000/svg"><g clip-path="url(#a)"><path d="M91.622 5.883l-5.182-.48L84.381.621a.415.415 0 0 0-.763 0l-2.058 4.78-5.183.48a.415.415 0 0 0-.235.726l3.91 3.435-1.144 5.078a.415.415 0 0 0 .617.448L84 12.912l4.475 2.657a.415.415 0 0 0 .617-.448l-1.144-5.078 3.91-3.435a.415.415 0 0 0-.236-.725z" fill="#FFDC64"/><path d="M84.381.622a.415.415 0 0 0-.763 0l-2.058 4.78-5.183.48a.415.415 0 0 0-.235.726l3.91 3.435-1.144 5.078a.415.415 0 0 0 .617.448l.999-.593c.138-5.69 2.782-9.698 4.875-11.99L84.381.622z" fill="#FFC850"/></g><g clip-path="url(#b)"><path d="M72.622 5.883l-5.182-.48L65.381.621a.415.415 0 0 0-.763 0l-2.058 4.78-5.183.48a.415.415 0 0 0-.235.726l3.91 3.435-1.144 5.078a.415.415 0 0 0 .617.448L65 12.912l4.475 2.657a.415.415 0 0 0 .617-.448l-1.144-5.078 3.91-3.435a.415.415 0 0 0-.236-.725z" fill="#FFDC64"/><path d="M65.381.622a.415.415 0 0 0-.763 0l-2.058 4.78-5.183.48a.415.415 0 0 0-.235.726l3.91 3.435-1.144 5.078a.415.415 0 0 0 .617.448l.999-.593c.138-5.69 2.782-9.698 4.875-11.99L65.381.622z" fill="#FFC850"/></g><g clip-path="url(#c)"><path d="M53.622 5.883l-5.182-.48L46.381.621a.415.415 0 0 0-.763 0l-2.058 4.78-5.183.48a.415.415 0 0 0-.235.726l3.91 3.435-1.144 5.078a.415.415 0 0 0 .617.448L46 12.912l4.475 2.657a.415.415 0 0 0 .617-.448l-1.144-5.078 3.91-3.435a.415.415 0 0 0-.236-.725z" fill="#FFDC64"/><path d="M46.381.622a.415.415 0 0 0-.763 0l-2.058 4.78-5.183.48a.415.415 0 0 0-.235.726l3.91 3.435-1.144 5.078a.415.415 0 0 0 .617.448l.999-.593c.138-5.69 2.782-9.698 4.875-11.99L46.381.622z" fill="#FFC850"/></g><g clip-path="url(#d)"><path d="M34.622 5.883l-5.182-.48L27.381.621a.415.415 0 0 0-.762 0l-2.06 4.78-5.182.48a.415.415 0 0 0-.235.726l3.91 3.435-1.144 5.078a.415.415 0 0 0 .617.448L27 12.912l4.475 2.657a.415.415 0 0 0 .617-.448l-1.144-5.078 3.91-3.435a.415.415 0 0 0-.236-.725z" fill="#FFDC64"/><path d="M27.381.622a.415.415 0 0 0-.762 0l-2.06 4.78-5.182.48a.415.415 0 0 0-.235.726l3.91 3.435-1.144 5.078a.415.415 0 0 0 .617.448l.999-.593c.138-5.69 2.782-9.698 4.875-11.99L27.381.622z" fill="#FFC850"/></g><g clip-path="url(#e)"><path d="M15.622 5.883l-5.182-.48L8.381.621a.415.415 0 0 0-.763 0L5.56 5.402l-5.183.48a.415.415 0 0 0-.235.726l3.91 3.435-1.144 5.078a.415.415 0 0 0 .617.448L8 12.912l4.475 2.657a.415.415 0 0 0 .617-.448l-1.144-5.078 3.91-3.435a.415.415 0 0 0-.236-.725z" fill="#FFDC64"/><path d="M8.381.622a.415.415 0 0 0-.763 0L5.56 5.402l-5.183.48a.415.415 0 0 0-.235.726l3.91 3.435-1.144 5.078a.415.415 0 0 0 .617.448l.999-.593c.138-5.69 2.782-9.698 4.875-11.99L8.381.622z" fill="#FFC850"/></g><defs><clipPath id="a"><path fill="#fff" transform="translate(76)" d="M0 0h16v16H0z"/></clipPath><clipPath id="b"><path fill="#fff" transform="translate(57)" d="M0 0h16v16H0z"/></clipPath><clipPath id="c"><path fill="#fff" transform="translate(38)" d="M0 0h16v16H0z"/></clipPath><clipPath id="d"><path fill="#fff" transform="translate(19)" d="M0 0h16v16H0z"/></clipPath><clipPath id="e"><path fill="#fff" d="M0 0h16v16H0z"/></clipPath></defs></svg>