<svg width="30" height="30" viewBox="0 0 30 30" fill="none" xmlns="http://www.w3.org/2000/svg">
<rect width="30" height="30" rx="15" fill="#F0F8F6"/>
<rect width="22" height="22" rx="11" transform="matrix(-1 0 0 1 25.9999 4.00146)" fill="url(#paint0_linear_1_225)"/>
<g clip-path="url(#clip0_1_225)">
<path d="M13.5631 11.0236L14.5812 12.0692C14.6508 12.1405 14.6506 12.2543 14.5808 12.3255L12.8556 14.0849L20.3166 14.0849C20.4177 14.0849 20.4999 14.167 20.4999 14.2682L20.4999 15.7349C20.4999 15.8361 20.4177 15.9182 20.3166 15.9182L12.8556 15.9182L14.5808 17.6777C14.6505 17.7488 14.6506 17.8625 14.5812 17.9338L13.5631 18.9794C13.5286 19.0149 13.4813 19.0349 13.4318 19.0349C13.3823 19.0349 13.335 19.0147 13.3006 18.9794L9.55194 15.1294C9.51728 15.0938 9.49988 15.0476 9.49988 15.0016C9.49988 14.9554 9.5173 14.9094 9.55194 14.8736L13.3006 11.0236C13.335 10.9882 13.3823 10.9682 13.4318 10.9682C13.4813 10.9682 13.5286 10.9882 13.5631 11.0236Z" fill="white"/>
</g>
<defs>
<linearGradient id="paint0_linear_1_225" x1="14.5" y1="14.5" x2="-2" y2="6" gradientUnits="userSpaceOnUse">
<stop stop-color="#74E6CF"/>
<stop offset="1" stop-color="#C0E594"/>
</linearGradient>
<clipPath id="clip0_1_225">
<rect width="11" height="11" fill="white" transform="matrix(4.37114e-08 -1 -1 -4.37114e-08 20.4999 20.5015)"/>
</clipPath>
</defs>
</svg>
