<svg width="30" height="30" viewBox="0 0 30 30" fill="none" xmlns="http://www.w3.org/2000/svg">
<rect width="30" height="30" rx="15" transform="matrix(-1 0 0 1 30 0)" fill="#F0F8F6"/>
<rect x="4.00012" y="4.00146" width="22" height="22" rx="11" fill="url(#paint0_linear_1_232)"/>
<g clip-path="url(#clip0_1_232)">
<path d="M16.4369 11.0236L15.4188 12.0692C15.3492 12.1405 15.3494 12.2543 15.4192 12.3255L17.1444 14.0849L9.68344 14.0849C9.58225 14.0849 9.50012 14.167 9.50012 14.2682L9.50012 15.7349C9.50012 15.8361 9.58225 15.9182 9.68344 15.9182L17.1444 15.9182L15.4192 17.6777C15.3495 17.7488 15.3494 17.8625 15.4188 17.9338L16.4369 18.9794C16.4714 19.0149 16.5187 19.0349 16.5682 19.0349C16.6177 19.0349 16.665 19.0147 16.6994 18.9794L20.4481 15.1294C20.4827 15.0938 20.5001 15.0476 20.5001 15.0016C20.5001 14.9554 20.4827 14.9094 20.4481 14.8736L16.6994 11.0236C16.665 10.9882 16.6177 10.9682 16.5682 10.9682C16.5187 10.9682 16.4714 10.9882 16.4369 11.0236Z" fill="white"/>
</g>
<defs>
<linearGradient id="paint0_linear_1_232" x1="18.5001" y1="18.5015" x2="2.00012" y2="10.0015" gradientUnits="userSpaceOnUse">
<stop stop-color="#74E6CF"/>
<stop offset="1" stop-color="#C0E594"/>
</linearGradient>
<clipPath id="clip0_1_232">
<rect width="11" height="11" fill="white" transform="translate(9.50012 20.5015) rotate(-90)"/>
</clipPath>
</defs>
</svg>
