<svg width="136" height="91" viewBox="0 0 136 91" fill="none" xmlns="http://www.w3.org/2000/svg">
<path d="M82 50C82 72.6437 63.6437 91 41 91C18.3563 91 0 72.6437 0 50C0 27.3563 18.3563 9 41 9C63.6437 9 82 27.3563 82 50ZM6.5 50C6.5 69.0538 21.9462 84.5 41 84.5C60.0538 84.5 75.5 69.0538 75.5 50C75.5 30.9462 60.0538 15.5 41 15.5C21.9462 15.5 6.5 30.9462 6.5 50Z" fill="url(#paint0_linear_5_46)"/>
<path d="M136 17C136 26.3888 128.389 34 119 34C109.611 34 102 26.3888 102 17C102 7.61116 109.611 0 119 0C128.389 0 136 7.61116 136 17ZM105.372 17C105.372 24.5268 111.473 30.6285 119 30.6285C126.527 30.6285 132.628 24.5268 132.628 17C132.628 9.4732 126.527 3.37152 119 3.37152C111.473 3.37152 105.372 9.4732 105.372 17Z" fill="url(#paint1_linear_5_46)"/>
<defs>
<linearGradient id="paint0_linear_5_46" x1="41" y1="9" x2="41" y2="91" gradientUnits="userSpaceOnUse">
<stop stop-color="#FDBABA"/>
<stop offset="1" stop-color="#FCDDA9"/>
</linearGradient>
<linearGradient id="paint1_linear_5_46" x1="119" y1="0" x2="119" y2="34" gradientUnits="userSpaceOnUse">
<stop stop-color="#74E6CF"/>
<stop offset="1" stop-color="#C0E594"/>
</linearGradient>
</defs>
</svg>
