<svg width="30" height="30" viewBox="0 0 30 30" fill="none" xmlns="http://www.w3.org/2000/svg">
<g clip-path="url(#clip0_3051_22)">
<path d="M13.0599 22.7344H16.077C16.3358 22.7344 16.5457 22.5245 16.5457 22.2656V15.4742H18.1132C18.3534 15.4742 18.5548 15.2925 18.5794 15.0535L18.8437 12.4887C18.8573 12.3568 18.8143 12.2252 18.7254 12.1267C18.6365 12.0281 18.5101 11.9719 18.3774 11.9719H16.5457V10.9331C16.5457 10.7185 16.6136 10.7024 16.7173 10.7024H18.3393C18.5981 10.7024 18.808 10.4926 18.808 10.2337V7.74346C18.808 7.48529 18.5993 7.27576 18.3411 7.27471L16.1042 7.26562C14.5367 7.26562 13.7002 7.95527 13.2744 8.53377C12.6799 9.3416 12.5912 10.2881 12.5912 10.7804V11.9719H11.625C11.3662 11.9719 11.1563 12.1818 11.1563 12.4406V15.0054C11.1563 15.2643 11.3662 15.4741 11.625 15.4741H12.5912V22.2656C12.5912 22.5245 12.801 22.7344 13.0599 22.7344ZM12.0937 14.5367V12.9094H13.0599C13.3187 12.9094 13.5286 12.6996 13.5286 12.4407V10.7805C13.5286 10.4767 13.5774 9.70377 14.0294 9.08947C14.4622 8.50137 15.1603 8.20318 16.1022 8.20318L17.8704 8.21033V9.765H16.7172C16.1652 9.765 15.6081 10.1262 15.6081 10.9331V12.4407C15.6081 12.6996 15.818 12.9095 16.0769 12.9095H17.8578L17.6901 14.5368H16.0769C15.818 14.5368 15.6081 14.7466 15.6081 15.0055V21.7969H13.5286V15.0054C13.5286 14.7466 13.3187 14.5367 13.0598 14.5367H12.0937Z" fill="#01A3A4"/>
<path d="M25.6068 4.39359C22.7736 1.56035 19.0067 0 15 0C10.9936 0 7.22684 1.56035 4.39359 4.39359C1.56035 7.22684 0 10.9936 0 15C0 19.0071 1.56035 22.7741 4.39359 25.6071C7.22666 28.4399 10.9934 30 15 30C19.0069 30 22.7738 28.4399 25.6067 25.6071C28.4398 22.7742 30 19.0072 30 15C30 10.9935 28.4398 7.22672 25.6068 4.39359ZM24.9438 24.9442C22.288 27.5999 18.7565 29.0625 15 29.0625C11.2438 29.0625 7.71246 27.5999 5.05646 24.9442C2.40029 22.2882 0.9375 18.7566 0.9375 15C0.9375 11.244 2.40029 7.7127 5.05646 5.05652C7.7127 2.40029 11.244 0.9375 15 0.9375C18.7563 0.9375 22.2878 2.40029 24.9438 5.05646C27.5998 7.71258 29.0625 11.2439 29.0625 15C29.0625 18.7567 27.5998 22.2883 24.9438 24.9442Z" fill="#01A3A4"/>
</g>
<defs>
<clipPath id="clip0_3051_22">
<rect width="30" height="30" fill="white"/>
</clipPath>
</defs>
</svg>
