<svg width="125" height="511" viewBox="0 0 125 511" fill="none" xmlns="http://www.w3.org/2000/svg">
<path d="M104 33C104 51.2254 89.2254 66 71 66C52.7746 66 38 51.2254 38 33C38 14.7746 52.7746 0 71 0C89.2254 0 104 14.7746 104 33ZM44.5447 33C44.5447 47.6109 56.3891 59.4553 71 59.4553C85.6109 59.4553 97.4553 47.6109 97.4553 33C97.4553 18.3891 85.6109 6.54471 71 6.54471C56.3891 6.54471 44.5447 18.3891 44.5447 33Z" fill="url(#paint0_linear_1_6)"/>
<path opacity="0.5" d="M31 83L31 96.75L118.5 96.75L118.5 83L31 83ZM31 136.179L31 150.304L118.5 150.304L118.5 138.054L66.125 138.054L118.5 123.929L118.5 106.679L31 106.679L31 119.054L94.375 119.054L31 136.179ZM97.5 158.398C72.5 158.398 69.125 185.273 51.125 185.273C44.875 185.273 42.625 182.523 42.625 178.148C42.625 173.773 44.875 171.023 51.125 171.023L57.375 171.023L57.375 158.023L52 158.023C38 158.023 30 165.023 30 178.523C30 192.023 38 199.023 52 199.023C77 199.023 80.375 172.148 98.375 172.148C104.625 172.148 107 174.648 107 179.023C107 183.398 104.625 185.898 98.375 185.898L94.75 185.898L94.75 198.898L97.5 198.898C111.5 198.898 119.5 192.023 119.5 178.648C119.5 165.273 111.5 158.398 97.5 158.398ZM106 202.901L106 217.276L31 217.276L31 231.026L106 231.026L106 245.401L118.5 245.401L118.5 202.901L106 202.901ZM118.5 277.196L118.5 257.071L31 243.071L31 255.696L46.875 258.071L46.875 274.946L31 277.321L31 291.196L118.5 277.196ZM103 266.446L58.75 273.071L58.75 259.821L103 266.446ZM67.25 318.103L67.25 324.353L51.125 324.353C44.875 324.353 42.625 321.603 42.625 317.228C42.625 312.853 44.875 310.103 51.125 310.103L98.375 310.103C104.625 310.103 107 312.853 107 317.228C107 321.603 104.625 324.353 98.375 324.353L89 324.353L89 337.353L97.5 337.353C111.5 337.353 119.5 330.353 119.5 316.853C119.5 303.353 111.5 296.353 97.5 296.353L52 296.353C38 296.353 30 303.353 30 316.853C30 330.353 38 337.353 52 337.353L79.75 337.353L79.75 318.103L67.25 318.103ZM31 388.934C34.25 387.559 37.375 387.434 41.625 387.434L55.125 387.434C64.25 387.434 70.875 385.184 73.75 378.309C76.625 384.434 82.5 387.309 91.5 387.309L98.375 387.309C111.875 387.309 118.5 381.184 118.5 366.934L118.5 346.184L31 346.184L31 359.934L66.625 359.934L66.625 364.684C66.625 370.934 63.625 373.684 55.5 373.684L41.75 373.684C34.625 373.684 33.25 374.184 31 374.934L31 388.934ZM106 366.559C106 371.434 103.25 373.559 97 373.559L88.375 373.559C81.375 373.559 79.125 370.434 79.125 365.309L79.125 359.934L106 359.934L106 366.559ZM118.5 426.977L118.5 406.852L31 392.852L31 405.477L46.875 407.852L46.875 424.727L31 427.102L31 440.977L118.5 426.977ZM103 416.227L58.75 422.852L58.75 409.602L103 416.227ZM118.5 466.38L118.5 447.255L31 447.255L31 459.255L92.875 459.255L31 469.505L31 482.505L93.75 492.005L31 492.005L31 505.005L118.5 505.005L118.5 485.88L56.375 476.505L118.5 466.38Z" fill="white"/>
<defs>
<linearGradient id="paint0_linear_1_6" x1="50.5" y1="6.5" x2="104" y2="73.5" gradientUnits="userSpaceOnUse">
<stop stop-color="#74E6CF"/>
<stop offset="1" stop-color="#C0E594"/>
</linearGradient>
</defs>
</svg>
