<svg width="30" height="30" viewBox="0 0 30 30" fill="none" xmlns="http://www.w3.org/2000/svg">
<g clip-path="url(#clip0_3051_26)">
<path d="M25.6066 4.39363C22.7737 1.56042 19.0065 0 15 0C10.9935 0 7.22692 1.56042 4.39363 4.39363C1.56042 7.22692 0 10.9935 0 15C0 19.0071 1.56042 22.7739 4.39363 25.6069C7.22662 28.4399 10.9935 30 15 30C19.0068 30 22.7737 28.4399 25.6066 25.6069C28.4396 22.7739 30 19.0071 30 15C30 10.9935 28.4396 7.22662 25.6066 4.39363ZM24.9437 24.944C22.2879 27.5999 18.7565 29.0624 15 29.0624C11.2438 29.0624 7.71244 27.5999 5.05654 24.944C2.40035 22.2881 0.937569 18.7565 0.937569 15C0.937569 11.2441 2.40035 7.71273 5.05654 5.05654C7.71273 2.40035 11.2441 0.937569 15 0.937569C18.7562 0.937569 22.2876 2.40035 24.9437 5.05654C27.5996 7.71244 29.0624 11.2438 29.0624 15C29.0624 18.7568 27.5996 22.2881 24.9437 24.944Z" fill="#01A3A4"/>
<path d="M18.9396 7.47974H11.0895C9.0991 7.47974 7.4798 9.09911 7.4798 11.0895V18.9395C7.4798 20.93 9.0991 22.5493 11.0895 22.5493H18.9396C20.93 22.5493 22.5492 20.93 22.5492 18.9395V11.0895C22.5492 9.09911 20.93 7.47974 18.9396 7.47974ZM21.5988 18.9394C21.5988 20.4057 20.4059 21.5988 18.9396 21.5988H11.0895C9.62329 21.5988 8.43048 20.4057 8.43048 18.9394V11.0895C8.43048 9.6233 9.62337 8.43049 11.0895 8.43049H18.9396C20.4059 8.43049 21.5988 9.62338 21.5988 11.0895V18.9394Z" fill="#01A3A4"/>
<path d="M19.226 10.2339C18.9068 10.2339 18.6471 10.4935 18.6471 10.8126C18.6471 11.1316 18.9068 11.3912 19.226 11.3912C19.545 11.3912 19.8046 11.1316 19.8046 10.8126C19.8046 10.4935 19.545 10.2339 19.226 10.2339Z" fill="#01A3A4"/>
<path d="M15.0143 11.3208C12.9778 11.3208 11.3209 12.9777 11.3209 15.0142C11.3209 17.0509 12.9778 18.7079 15.0143 18.7079C17.051 18.7079 18.7081 17.0509 18.7081 15.0142C18.7081 12.9777 17.051 11.3208 15.0143 11.3208ZM15.0143 17.7576C13.5017 17.7576 12.2712 16.5269 12.2712 15.0142C12.2712 13.5019 13.5017 12.2716 15.0143 12.2716C16.5268 12.2716 17.7572 13.5019 17.7572 15.0142C17.7572 16.5269 16.5268 17.7576 15.0143 17.7576Z" fill="#01A3A4"/>
</g>
<defs>
<clipPath id="clip0_3051_26">
<rect width="30" height="30" fill="white"/>
</clipPath>
</defs>
</svg>
