<svg width="184" height="210" viewBox="0 0 184 210" fill="none" xmlns="http://www.w3.org/2000/svg">
<path d="M183.5 118.5C183.5 169.034 142.534 210 92.0001 210C41.466 210 0.5 169.034 0.5 118.5C0.5 67.966 41.466 27 92.0001 27C142.534 27 183.5 67.966 183.5 118.5ZM18.6467 118.5C18.6467 159.012 51.4882 191.854 92.0001 191.854C132.512 191.854 165.354 159.012 165.354 118.5C165.354 77.9882 132.512 45.1467 92.0001 45.1467C51.4882 45.1467 18.6467 77.9882 18.6467 118.5Z" fill="url(#paint0_linear_3_40)"/>
<path d="M42 16C42 24.8366 34.8366 32 26 32C17.1634 32 10 24.8366 10 16C10 7.16344 17.1634 0 26 0C34.8366 0 42 7.16344 42 16ZM18.7495 16C18.7495 20.0043 21.9957 23.2505 26 23.2505C30.0043 23.2505 33.2505 20.0043 33.2505 16C33.2505 11.9957 30.0043 8.74955 26 8.74955C21.9957 8.74955 18.7495 11.9957 18.7495 16Z" fill="url(#paint1_linear_3_40)"/>
<defs>
<linearGradient id="paint0_linear_3_40" x1="92.0001" y1="27" x2="92.0001" y2="210" gradientUnits="userSpaceOnUse">
<stop stop-color="#74E6CF"/>
<stop offset="1" stop-color="#C0E594"/>
</linearGradient>
<linearGradient id="paint1_linear_3_40" x1="16.9189" y1="3.45946" x2="30.3243" y2="32" gradientUnits="userSpaceOnUse">
<stop stop-color="#FCDDA9"/>
<stop offset="1" stop-color="#FDBABA"/>
</linearGradient>
</defs>
</svg>
