<svg width="297" height="103" viewBox="0 0 297 103" fill="none" xmlns="http://www.w3.org/2000/svg">
<path d="M62 79.3181C62 91.1922 52.598 100.818 41 100.818C29.402 100.818 20 91.1922 20 79.3181C20 67.444 29.402 57.8181 41 57.8181C52.598 57.8181 62 67.444 62 79.3181ZM23.3293 79.3181C23.3293 89.3098 31.2407 97.4096 41 97.4096C50.7593 97.4096 58.6707 89.3098 58.6707 79.3181C58.6707 69.3265 50.7593 61.2267 41 61.2267C31.2407 61.2267 23.3293 69.3265 23.3293 79.3181Z" fill="url(#paint0_linear_1_7)"/>
<path d="M285.233 19.307C293.071 29.2693 285.192 37.6019 283.186 46.3138C281.181 55.0256 282.408 68.5502 290.086 64.9959C297.765 61.4417 287.779 47.2054 277.057 56.3175C266.334 65.4295 282.025 95.8552 245.221 101.705" stroke="#D69914" stroke-dasharray="5 5"/>
<path d="M211.5 11.5001C218.5 18.0001 216 29.5001 213.5 35.0001C211 40.5001 202.702 44.0309 198.827 39.0001C194.951 33.9693 203.327 30.5001 208.327 46.0001C213.327 61.5001 188.584 61.4556 210.813 78.8315" stroke="#D69914" stroke-dasharray="5 5"/>
<path d="M133.5 20.4999C114 52.4999 165.179 39.6625 146 67.9999" stroke="#D69914" stroke-dasharray="5 5"/>
<path d="M2.49994 24.4999C2.06631 41.8451 32.9999 53.9999 37.4999 40.9999C38.5706 37.9068 33.1261 33.6514 28.9999 36.9999C22.8807 41.9659 25.1794 46.0106 29.9999 49.9999C44.4999 61.9999 60.9999 33.4999 74.084 52.6355" stroke="#D69914" stroke-dasharray="5 5"/>
<defs>
<linearGradient id="paint0_linear_1_7" x1="29.0811" y1="62.4668" x2="47.3643" y2="100.487" gradientUnits="userSpaceOnUse">
<stop stop-color="#FCDDA9"/>
<stop offset="1" stop-color="#FDBABA"/>
</linearGradient>
</defs>
</svg>
