<svg width="16" height="16" viewBox="0 0 16 16" fill="none" xmlns="http://www.w3.org/2000/svg">
<g clip-path="url(#clip0_1_338)">
<path d="M15.6224 5.88281L10.44 5.40216L8.38134 0.621888C8.23721 0.28717 7.76262 0.28717 7.6185 0.621888L5.55991 5.40219L0.377447 5.88281C0.0145727 5.91647 -0.132083 6.36781 0.141698 6.60831L4.05188 10.0434L2.90757 15.1207C2.82744 15.4762 3.21138 15.7552 3.52472 15.5691L7.99993 12.9118L12.4751 15.5691C12.7885 15.7552 13.1725 15.4762 13.0923 15.1207L11.948 10.0434L15.8582 6.60831C16.1319 6.36781 15.9853 5.91647 15.6224 5.88281Z" fill="#FFDC64"/>
<path d="M8.38134 0.621888C8.23721 0.28717 7.76262 0.28717 7.6185 0.621888L5.55991 5.40219L0.377447 5.88281C0.0145727 5.91647 -0.132083 6.36781 0.141698 6.60831L4.05188 10.0434L2.90757 15.1207C2.82744 15.4762 3.21138 15.7552 3.52472 15.5691L4.52356 14.976C4.66181 9.28537 7.30587 5.27797 9.39924 2.98551L8.38134 0.621888Z" fill="#FFC850"/>
</g>
<defs>
<clipPath id="clip0_1_338">
<rect width="16" height="16" fill="white"/>
</clipPath>
</defs>
</svg>
