<svg width="119" height="25" viewBox="0 0 119 25" fill="none" xmlns="http://www.w3.org/2000/svg">
<path d="M98.4082 12.0098L98.9141 7.04688H104.014V8.21582H99.9873L99.6865 10.9297C100.174 10.6426 100.728 10.499 101.348 10.499C102.255 10.499 102.975 10.7998 103.508 11.4014C104.041 11.9984 104.308 12.8073 104.308 13.8281C104.308 14.8535 104.03 15.6624 103.474 16.2549C102.922 16.8428 102.15 17.1367 101.156 17.1367C100.277 17.1367 99.5589 16.8929 99.0029 16.4053C98.4469 15.9176 98.1302 15.2432 98.0527 14.3818H99.249C99.3265 14.9515 99.5293 15.3822 99.8574 15.6738C100.186 15.9609 100.618 16.1045 101.156 16.1045C101.744 16.1045 102.204 15.904 102.537 15.5029C102.874 15.1019 103.043 14.5482 103.043 13.8418C103.043 13.1764 102.861 12.6432 102.496 12.2422C102.136 11.8366 101.655 11.6338 101.054 11.6338C100.502 11.6338 100.069 11.7546 99.7549 11.9961L99.4199 12.2695L98.4082 12.0098ZM106.071 17.8545H104.984L109.141 7.04688H110.221L106.071 17.8545ZM112.039 12.0098L112.545 7.04688H117.645V8.21582H113.618L113.317 10.9297C113.805 10.6426 114.359 10.499 114.979 10.499C115.885 10.499 116.605 10.7998 117.139 11.4014C117.672 11.9984 117.938 12.8073 117.938 13.8281C117.938 14.8535 117.66 15.6624 117.104 16.2549C116.553 16.8428 115.781 17.1367 114.787 17.1367C113.908 17.1367 113.19 16.8929 112.634 16.4053C112.078 15.9176 111.761 15.2432 111.684 14.3818H112.88C112.957 14.9515 113.16 15.3822 113.488 15.6738C113.816 15.9609 114.249 16.1045 114.787 16.1045C115.375 16.1045 115.835 15.904 116.168 15.5029C116.505 15.1019 116.674 14.5482 116.674 13.8418C116.674 13.1764 116.492 12.6432 116.127 12.2422C115.767 11.8366 115.286 11.6338 114.685 11.6338C114.133 11.6338 113.7 11.7546 113.386 11.9961L113.051 12.2695L112.039 12.0098Z" fill="#E5E5E5"/>
<g clip-path="url(#clip0_1_323)">
<path d="M91.6224 9.88281L86.44 9.40216L84.3813 4.62189C84.2372 4.28717 83.7626 4.28717 83.6185 4.62189L81.5599 9.40219L76.3774 9.88281C76.0146 9.91647 75.8679 10.3678 76.1417 10.6083L80.0519 14.0434L78.9076 19.1207C78.8274 19.4762 79.2114 19.7552 79.5247 19.5691L83.9999 16.9118L88.4751 19.5691C88.7885 19.7552 89.1725 19.4762 89.0923 19.1207L87.948 14.0434L91.8582 10.6083C92.1319 10.3678 91.9853 9.91647 91.6224 9.88281Z" fill="#FFDC64"/>
<path d="M84.3813 4.62189C84.2372 4.28717 83.7626 4.28717 83.6185 4.62189L81.5599 9.40219L76.3774 9.88281C76.0146 9.91647 75.8679 10.3678 76.1417 10.6083L80.0519 14.0434L78.9076 19.1207C78.8274 19.4762 79.2114 19.7552 79.5247 19.5691L80.5236 18.976C80.6618 13.2854 83.3059 9.27797 85.3992 6.98551L84.3813 4.62189Z" fill="#FFC850"/>
</g>
<g clip-path="url(#clip1_1_323)">
<path d="M72.6224 9.88281L67.44 9.40216L65.3813 4.62189C65.2372 4.28717 64.7626 4.28717 64.6185 4.62189L62.5599 9.40219L57.3774 9.88281C57.0146 9.91647 56.8679 10.3678 57.1417 10.6083L61.0519 14.0434L59.9076 19.1207C59.8274 19.4762 60.2114 19.7552 60.5247 19.5691L64.9999 16.9118L69.4751 19.5691C69.7885 19.7552 70.1725 19.4762 70.0923 19.1207L68.948 14.0434L72.8582 10.6083C73.1319 10.3678 72.9853 9.91647 72.6224 9.88281Z" fill="#FFDC64"/>
<path d="M65.3813 4.62189C65.2372 4.28717 64.7626 4.28717 64.6185 4.62189L62.5599 9.40219L57.3774 9.88281C57.0146 9.91647 56.8679 10.3678 57.1417 10.6083L61.0519 14.0434L59.9076 19.1207C59.8274 19.4762 60.2114 19.7552 60.5247 19.5691L61.5236 18.976C61.6618 13.2854 64.3059 9.27797 66.3992 6.98551L65.3813 4.62189Z" fill="#FFC850"/>
</g>
<g clip-path="url(#clip2_1_323)">
<path d="M53.6224 9.88281L48.44 9.40216L46.3813 4.62189C46.2372 4.28717 45.7626 4.28717 45.6185 4.62189L43.5599 9.40219L38.3774 9.88281C38.0146 9.91647 37.8679 10.3678 38.1417 10.6083L42.0519 14.0434L40.9076 19.1207C40.8274 19.4762 41.2114 19.7552 41.5247 19.5691L45.9999 16.9118L50.4751 19.5691C50.7885 19.7552 51.1725 19.4762 51.0923 19.1207L49.948 14.0434L53.8582 10.6083C54.1319 10.3678 53.9853 9.91647 53.6224 9.88281Z" fill="#FFDC64"/>
<path d="M46.3813 4.62189C46.2372 4.28717 45.7626 4.28717 45.6185 4.62189L43.5599 9.40219L38.3774 9.88281C38.0146 9.91647 37.8679 10.3678 38.1417 10.6083L42.0519 14.0434L40.9076 19.1207C40.8274 19.4762 41.2114 19.7552 41.5247 19.5691L42.5236 18.976C42.6618 13.2854 45.3059 9.27797 47.3992 6.98551L46.3813 4.62189Z" fill="#FFC850"/>
</g>
<g clip-path="url(#clip3_1_323)">
<path d="M34.6224 9.88281L29.44 9.40216L27.3813 4.62189C27.2372 4.28717 26.7626 4.28717 26.6185 4.62189L24.5599 9.40219L19.3774 9.88281C19.0146 9.91647 18.8679 10.3678 19.1417 10.6083L23.0519 14.0434L21.9076 19.1207C21.8274 19.4762 22.2114 19.7552 22.5247 19.5691L26.9999 16.9118L31.4751 19.5691C31.7885 19.7552 32.1725 19.4762 32.0923 19.1207L30.948 14.0434L34.8582 10.6083C35.1319 10.3678 34.9853 9.91647 34.6224 9.88281Z" fill="#FFDC64"/>
<path d="M27.3813 4.62189C27.2372 4.28717 26.7626 4.28717 26.6185 4.62189L24.5599 9.40219L19.3774 9.88281C19.0146 9.91647 18.8679 10.3678 19.1417 10.6083L23.0519 14.0434L21.9076 19.1207C21.8274 19.4762 22.2114 19.7552 22.5247 19.5691L23.5236 18.976C23.6618 13.2854 26.3059 9.27797 28.3992 6.98551L27.3813 4.62189Z" fill="#FFC850"/>
</g>
<g clip-path="url(#clip4_1_323)">
<path d="M15.6224 9.88281L10.44 9.40216L8.38134 4.62189C8.23721 4.28717 7.76262 4.28717 7.6185 4.62189L5.55991 9.40219L0.377447 9.88281C0.0145727 9.91647 -0.132083 10.3678 0.141698 10.6083L4.05188 14.0434L2.90757 19.1207C2.82744 19.4762 3.21138 19.7552 3.52472 19.5691L7.99993 16.9118L12.4751 19.5691C12.7885 19.7552 13.1725 19.4762 13.0923 19.1207L11.948 14.0434L15.8582 10.6083C16.1319 10.3678 15.9853 9.91647 15.6224 9.88281Z" fill="#FFDC64"/>
<path d="M8.38134 4.62189C8.23721 4.28717 7.76262 4.28717 7.6185 4.62189L5.55991 9.40219L0.377447 9.88281C0.0145727 9.91647 -0.132083 10.3678 0.141698 10.6083L4.05188 14.0434L2.90757 19.1207C2.82744 19.4762 3.21138 19.7552 3.52472 19.5691L4.52356 18.976C4.66181 13.2854 7.30587 9.27797 9.39924 6.98551L8.38134 4.62189Z" fill="#FFC850"/>
</g>
<defs>
<clipPath id="clip0_1_323">
<rect width="16" height="16" fill="white" transform="translate(76 4)"/>
</clipPath>
<clipPath id="clip1_1_323">
<rect width="16" height="16" fill="white" transform="translate(57 4)"/>
</clipPath>
<clipPath id="clip2_1_323">
<rect width="16" height="16" fill="white" transform="translate(38 4)"/>
</clipPath>
<clipPath id="clip3_1_323">
<rect width="16" height="16" fill="white" transform="translate(19 4)"/>
</clipPath>
<clipPath id="clip4_1_323">
<rect width="16" height="16" fill="white" transform="translate(0 4)"/>
</clipPath>
</defs>
</svg>
