<svg width="30" height="30" viewBox="0 0 30 30" fill="none" xmlns="http://www.w3.org/2000/svg">
<g clip-path="url(#clip0_3051_34)">
<path d="M25.6068 4.39359C22.7736 1.56035 19.0067 0 15 0C10.9936 0 7.22684 1.56035 4.39359 4.39359C1.56035 7.22684 0 10.9936 0 15C0 19.0071 1.56035 22.7741 4.39359 25.6071C7.22666 28.4399 10.9934 30 15 30C19.0069 30 22.7738 28.4399 25.6067 25.6071C28.4398 22.7742 30 19.0072 30 15C30 10.9935 28.4398 7.22672 25.6068 4.39359ZM24.9438 24.9442C22.288 27.5999 18.7565 29.0625 15 29.0625C11.2438 29.0625 7.71246 27.5999 5.05646 24.9442C2.40029 22.2882 0.9375 18.7566 0.9375 15C0.9375 11.244 2.40029 7.7127 5.05646 5.05646C7.7127 2.40029 11.244 0.9375 15 0.9375C18.7563 0.9375 22.2878 2.40029 24.9438 5.05646C27.5998 7.71258 29.0625 11.2439 29.0625 15C29.0625 18.7567 27.5998 22.2883 24.9438 24.9442Z" fill="#01A3A4"/>
<path d="M23.3588 11.412C23.4745 11.2386 23.4617 11.0096 23.3275 10.8501C23.1934 10.6906 22.97 10.6389 22.7793 10.7231C22.7673 10.7284 22.7554 10.7337 22.7434 10.7388C22.8536 10.5411 22.9448 10.3317 23.0147 10.1133C23.0741 9.92776 23.0126 9.72491 22.8603 9.60362C22.708 9.48228 22.4965 9.46786 22.329 9.56718C21.8561 9.84796 21.3501 10.0543 20.8217 10.1823C20.189 9.60936 19.3567 9.2854 18.4986 9.2854C16.5961 9.2854 15.0482 10.8324 15.0482 12.7339C15.0482 12.7883 15.0495 12.8426 15.0519 12.8966C13.0094 12.6476 11.1241 11.6126 9.81265 10.003C9.7155 9.88376 9.5662 9.81972 9.41269 9.83179C9.25935 9.8438 9.12165 9.93022 9.04425 10.0631C8.73874 10.5875 8.57726 11.1872 8.57726 11.7976C8.57726 12.3807 8.72292 12.9426 8.99046 13.4387C8.91868 13.4434 8.84779 13.4647 8.78374 13.5025C8.6406 13.5867 8.55277 13.7403 8.55277 13.9065V13.9437C8.55277 14.9764 9.01613 15.924 9.76074 16.564C9.74462 16.5779 9.72933 16.593 9.71503 16.6092C9.60611 16.733 9.57013 16.9048 9.6204 17.0618C9.94073 18.0627 10.6897 18.8392 11.6281 19.2131C10.8663 19.5961 10.0252 19.7951 9.14866 19.7951C8.92765 19.7951 8.70663 19.7824 8.49177 19.7574C8.27509 19.7321 8.06954 19.8598 7.99618 20.0653C7.92277 20.2708 8.00087 20.4997 8.1845 20.6176C9.6265 21.5425 11.2943 22.0313 13.0076 22.0313C16.3741 22.0313 18.4817 20.4419 19.657 19.1086C21.12 17.4489 21.959 15.2516 21.959 13.0799C21.959 13.0264 21.9586 12.9742 21.9577 12.9231C22.5028 12.497 22.9733 11.9897 23.3588 11.412ZM21.207 12.3147C21.0782 12.4076 21.0052 12.5594 21.013 12.718C21.0186 12.8334 21.0215 12.9518 21.0215 13.0799C21.0215 15.0265 20.2678 16.9979 18.9537 18.4887C17.9061 19.6771 16.0242 21.0938 13.0076 21.0938C12.0848 21.0938 11.1766 20.9353 10.3184 20.6287C11.3444 20.4435 12.3042 20.0131 13.1399 19.3575C13.2959 19.2351 13.358 19.0278 13.2951 18.8398C13.2321 18.6518 13.0576 18.5238 12.8593 18.52C12.0342 18.5045 11.2872 18.0885 10.8363 17.434C11.0715 17.4197 11.3054 17.3815 11.5341 17.3197C11.7441 17.263 11.8874 17.0693 11.8804 16.852C11.8734 16.6347 11.7179 16.4507 11.5048 16.4076C10.571 16.219 9.84206 15.518 9.58782 14.635C9.83855 14.7012 10.0969 14.7395 10.3565 14.7482C10.5661 14.7553 10.7544 14.6224 10.8184 14.4231C10.8825 14.2237 10.8065 14.006 10.6324 13.8898C9.93265 13.4228 9.51493 12.6407 9.51493 11.7975C9.51493 11.5839 9.542 11.3722 9.5948 11.1676C11.1656 12.7896 13.3042 13.7684 15.571 13.8814C15.719 13.8887 15.8599 13.8265 15.9542 13.7136C16.0485 13.6007 16.0843 13.45 16.0508 13.3066C16.0078 13.1221 15.9859 12.9294 15.9859 12.7339C15.9859 11.3493 17.1132 10.2228 18.4988 10.2228C19.1905 10.2228 19.8592 10.5118 20.3336 11.0154C20.444 11.1326 20.6069 11.185 20.7648 11.1541C20.9424 11.1194 21.118 11.0773 21.2913 11.0278C21.2044 11.0969 21.1125 11.1606 21.0161 11.2182C20.8265 11.3318 20.742 11.5623 20.8132 11.7715C20.8845 11.9807 21.0919 12.1118 21.3116 12.0859C21.388 12.077 21.4641 12.0667 21.54 12.055C21.4325 12.1455 21.3215 12.2321 21.207 12.3147Z" fill="#01A3A4"/>
</g>
<defs>
<clipPath id="clip0_3051_34">
<rect width="30" height="30" fill="white"/>
</clipPath>
</defs>
</svg>
