<svg width="30" height="30" viewBox="0 0 30 30" fill="none" xmlns="http://www.w3.org/2000/svg">
<g clip-path="url(#clip0_3051_38)">
<path d="M25.6068 4.39359C22.7736 1.56035 19.0067 0 15 0C10.9936 0 7.22684 1.56035 4.39359 4.39359C1.56035 7.22684 0 10.9936 0 15C0 19.0071 1.56035 22.7741 4.39359 25.6071C7.22666 28.4399 10.9934 30 15 30C19.0069 30 22.7738 28.4399 25.6067 25.6071C28.4398 22.7742 30 19.0072 30 15C30 10.9935 28.4398 7.22672 25.6068 4.39359ZM24.9438 24.9442C22.288 27.5999 18.7565 29.0625 15 29.0625C11.2438 29.0625 7.71246 27.5999 5.05646 24.9442C2.40029 22.2882 0.9375 18.7566 0.9375 15C0.9375 11.244 2.40029 7.7127 5.05646 5.05646C7.7127 2.40029 11.244 0.9375 15 0.9375C18.7563 0.9375 22.2878 2.40029 24.9438 5.05646C27.5998 7.71258 29.0625 11.2439 29.0625 15C29.0625 18.7567 27.5998 22.2883 24.9438 24.9442Z" fill="#01A3A4"/>
<path d="M23.0749 11.6724C23.0575 11.5413 22.8895 10.3762 22.3436 9.78313C21.6917 9.0575 20.9497 8.98238 20.593 8.94623C20.5619 8.94307 20.5333 8.9402 20.5076 8.93709C20.5006 8.93621 20.4936 8.93551 20.4866 8.93498C18.333 8.76805 15.0822 8.76611 15.0495 8.76611H15.0423C15.0097 8.76611 11.7588 8.76805 9.6057 8.93498C9.59867 8.93551 9.59164 8.93621 9.58467 8.93709C9.559 8.94025 9.53041 8.94313 9.49924 8.94623C9.14263 8.98232 8.40107 9.05738 7.74869 9.78307C7.2033 10.3759 7.03478 11.5411 7.01738 11.6722C7.01703 11.6748 7.01674 11.6775 7.01638 11.68C7.00994 11.7355 6.85883 13.0548 6.85883 14.3987V15.6476C6.85883 16.9925 7.00994 18.3113 7.01638 18.3668C7.01668 18.3693 7.01703 18.3719 7.01732 18.3744C7.03472 18.5055 7.20283 19.6704 7.74892 20.2626C8.35267 20.9336 9.11715 21.0318 9.52812 21.0847C9.60048 21.094 9.663 21.102 9.7056 21.1105C9.72013 21.1134 9.73478 21.1156 9.74955 21.1171C10.9917 21.2444 14.8768 21.2835 15.047 21.2851C15.0796 21.2851 18.3332 21.2774 20.4861 21.1125C20.4941 21.1119 20.502 21.1111 20.5098 21.11C20.5363 21.1066 20.5659 21.1036 20.5981 21.1002C20.954 21.063 21.6941 20.9857 22.3436 20.2628C22.889 19.6708 23.0575 18.5062 23.0749 18.3751C23.0752 18.3726 23.0755 18.3699 23.0759 18.3673C23.0823 18.3118 23.2334 16.9926 23.2334 15.6482V14.3993C23.2334 13.0548 23.0823 11.7356 23.0759 11.6801C23.0756 11.6775 23.0752 11.675 23.0749 11.6724ZM22.2959 15.6482C22.2959 16.902 22.1541 18.1757 22.145 18.2555C22.1097 18.516 21.9462 19.3122 21.653 19.6287C21.6512 19.6306 21.6495 19.6326 21.6478 19.6345C21.239 20.0907 20.7946 20.1371 20.5006 20.1679C20.4655 20.1716 20.4329 20.175 20.4033 20.1787C18.2854 20.34 15.0774 20.3476 15.0506 20.3478C15.0109 20.3473 11.0875 20.3079 9.8648 20.1866C9.79718 20.1742 9.72429 20.1648 9.64759 20.1549C9.2965 20.1098 8.81562 20.048 8.4442 19.6338C8.44244 19.6319 8.44068 19.63 8.43892 19.628C8.1783 19.347 7.99929 18.6381 7.94709 18.2548C7.93783 18.1731 7.79621 16.901 7.79621 15.6477V14.3988C7.79621 13.1449 7.93812 11.8708 7.94709 11.7918C7.98236 11.5311 8.14595 10.7343 8.43933 10.4169C8.44092 10.4152 8.44256 10.4134 8.44414 10.4117C8.85476 9.95381 9.29937 9.90881 9.59357 9.87899C9.62756 9.87553 9.65908 9.8723 9.68791 9.86891C11.8047 9.70555 15.01 9.70361 15.0421 9.70361H15.0494C15.0816 9.70361 18.2868 9.70555 20.4041 9.86891C20.4329 9.8723 20.4645 9.87553 20.4985 9.87899C20.7928 9.90875 21.2376 9.95381 21.6477 10.4115C21.6494 10.4134 21.6511 10.4152 21.6527 10.4171C21.9135 10.6988 22.0926 11.4079 22.1449 11.792C22.1542 11.8736 22.2958 13.1463 22.2958 14.3992L22.2959 15.6482Z" fill="#01A3A4"/>
<path d="M18.1847 14.6238L13.3592 11.7284C13.2144 11.6416 13.0341 11.6393 12.8871 11.7224C12.7401 11.8056 12.6492 11.9614 12.6492 12.1303V17.921C12.6492 18.0899 12.7401 18.2458 12.8871 18.3289C12.9588 18.3695 13.0384 18.3898 13.118 18.3898C13.2015 18.3898 13.285 18.3675 13.3591 18.323L18.1847 15.4276C18.3258 15.3429 18.4123 15.1903 18.4123 15.0256C18.4123 14.861 18.3259 14.7085 18.1847 14.6238ZM13.5868 17.0932V12.9583L17.0326 15.0257L13.5868 17.0932Z" fill="#01A3A4"/>
</g>
<defs>
<clipPath id="clip0_3051_38">
<rect width="30" height="30" fill="white"/>
</clipPath>
</defs>
</svg>
